<?xml version="1.0" encoding="utf-8"?>
<!-- Generator: Adobe Illustrator 15.0.2, SVG Export Plug-In . SVG Version: 6.00 Build 0)  -->
<!DOCTYPE svg PUBLIC "-//W3C//DTD SVG 1.1//EN" "http://www.w3.org/Graphics/SVG/1.1/DTD/svg11.dtd">
<svg version="1.1" id="Layer_1" xmlns="http://www.w3.org/2000/svg" xmlns:xlink="http://www.w3.org/1999/xlink" x="0px" y="0px"
	 width="360px" height="360px" viewBox="0 0 360 360" enable-background="new 0 0 360 360" xml:space="preserve">
<g>
	<path fill="#3A3A3A" d="M84.638,144.913c0-0.271,0.244-0.515,0.515-0.515h3.227c0.298,0,0.515,0.244,0.515,0.515v6.833h7.756
		v-6.833c0-0.271,0.217-0.515,0.516-0.515h3.227c0.271,0,0.516,0.244,0.516,0.515v17.952c0,0.271-0.244,0.515-0.516,0.515h-3.227
		c-0.299,0-0.516-0.244-0.516-0.515v-7.132h-7.756v7.132c0,0.271-0.217,0.515-0.515,0.515h-3.227c-0.271,0-0.515-0.244-0.515-0.515
		V144.913z"/>
	<path fill="#3A3A3A" d="M105.845,162.675l8.488-18.25c0.082-0.163,0.271-0.298,0.461-0.298h0.271c0.19,0,0.379,0.136,0.461,0.298
		l8.488,18.25c0.163,0.353-0.055,0.705-0.461,0.705h-3.01c-0.488,0-0.706-0.163-0.949-0.678l-0.977-2.143h-7.376l-0.976,2.169
		c-0.136,0.326-0.434,0.651-0.977,0.651h-2.983C105.899,163.38,105.682,163.028,105.845,162.675z M116.99,156.872l-2.061-4.475
		h-0.027l-2.034,4.475H116.99z"/>
	<path fill="#3A3A3A" d="M128.407,144.913c0-0.271,0.217-0.515,0.515-0.515h6.319c3.2,0,5.83,2.196,5.83,5.043
		c0,2.088-1.871,3.607-3.146,4.285c1.438,0.597,3.634,1.925,3.634,4.42c0,3.038-2.685,5.234-5.912,5.234h-6.726
		c-0.298,0-0.515-0.244-0.515-0.515V144.913z M134.752,152.099c1.03,0,1.898-0.868,1.898-1.952c0-1.085-0.868-1.844-1.898-1.844
		h-2.115v3.796H134.752z M135.105,159.502c1.058,0,1.953-0.868,1.953-1.979c0-1.085-1.166-1.898-2.224-1.898h-2.197v3.877H135.105z"
		/>
	<path fill="#3A3A3A" d="M147.715,144.913c0-0.271,0.217-0.515,0.515-0.515h11.227c0.298,0,0.515,0.244,0.515,0.515v2.956
		c0,0.271-0.217,0.516-0.515,0.516h-7.512v3.362h6.183c0.271,0,0.515,0.244,0.515,0.516v2.956c0,0.298-0.244,0.516-0.515,0.516
		h-6.183v3.661h7.512c0.298,0,0.515,0.244,0.515,0.515v2.956c0,0.271-0.217,0.515-0.515,0.515H148.23
		c-0.298,0-0.515-0.244-0.515-0.515V144.913z"/>
	<path fill="#3A3A3A" d="M166.319,144.913c0-0.271,0.217-0.515,0.515-0.515h8.108c3.254,0,5.912,2.63,5.912,5.857
		c0,2.495-1.654,4.501-4.013,5.451l3.715,6.888c0.19,0.353,0,0.786-0.461,0.786h-3.607c-0.217,0-0.379-0.136-0.434-0.244
		l-3.607-7.187h-1.871v6.915c0,0.271-0.244,0.515-0.515,0.515h-3.227c-0.298,0-0.515-0.244-0.515-0.515V144.913z M174.59,152.506
		c1.112,0,2.061-1.031,2.061-2.169c0-1.139-0.949-2.062-2.061-2.062h-4.014v4.231H174.59z"/>
	<path fill="#3A3A3A" d="M186.657,144.913c0-0.271,0.218-0.515,0.488-0.515h6.617c5.233,0,9.519,4.257,9.519,9.464
		c0,5.261-4.285,9.519-9.519,9.519h-6.617c-0.271,0-0.488-0.244-0.488-0.515V144.913z M193.492,159.367
		c3.063,0,5.287-2.414,5.287-5.505c0-3.064-2.224-5.478-5.287-5.478h-2.604v10.983H193.492z"/>
	<path fill="#3A3A3A" d="M205.587,162.675l8.487-18.25c0.082-0.163,0.271-0.298,0.462-0.298h0.271c0.19,0,0.38,0.136,0.461,0.298
		l8.488,18.25c0.163,0.353-0.055,0.705-0.461,0.705h-3.01c-0.488,0-0.706-0.163-0.949-0.678l-0.977-2.143h-7.376l-0.977,2.169
		c-0.136,0.326-0.435,0.651-0.977,0.651h-2.983C205.641,163.38,205.424,163.028,205.587,162.675z M216.732,156.872l-2.062-4.475
		h-0.026l-2.034,4.475H216.732z"/>
	<path fill="#3A3A3A" d="M226.521,160.804l1.274-2.251c0.217-0.353,0.732-0.298,0.923-0.163c0.108,0.054,2.061,1.492,3.851,1.492
		c1.085,0,1.871-0.678,1.871-1.627c0-1.139-0.949-2.007-2.794-2.739c-2.332-0.922-5.26-2.739-5.26-5.993
		c0-2.685,2.088-5.396,6.264-5.396c2.82,0,4.99,1.437,5.804,2.034c0.325,0.19,0.271,0.678,0.162,0.868l-1.383,2.088
		c-0.189,0.298-0.678,0.542-0.922,0.353c-0.244-0.136-2.224-1.627-3.878-1.627c-0.977,0-1.709,0.651-1.709,1.383
		c0,1.003,0.813,1.763,2.956,2.631c2.115,0.84,5.478,2.495,5.478,6.183c0,2.793-2.413,5.614-6.399,5.614
		c-3.525,0-5.478-1.464-6.102-2.088C226.387,161.292,226.305,161.184,226.521,160.804z"/>
	<path fill="#3A3A3A" d="M244.637,144.913c0-0.271,0.244-0.515,0.515-0.515h3.228c0.298,0,0.516,0.244,0.516,0.515v6.833h7.755
		v-6.833c0-0.271,0.218-0.515,0.516-0.515h3.228c0.271,0,0.515,0.244,0.515,0.515v17.952c0,0.271-0.244,0.515-0.515,0.515h-3.228
		c-0.298,0-0.516-0.244-0.516-0.515v-7.132h-7.755v7.132c0,0.271-0.218,0.515-0.516,0.515h-3.228c-0.271,0-0.515-0.244-0.515-0.515
		V144.913z"/>
	<path fill="#3A3A3A" d="M274.276,144.913c0-0.271,0.217-0.515,0.516-0.515h11.227c0.298,0,0.516,0.244,0.516,0.515v2.956
		c0,0.271-0.218,0.516-0.516,0.516h-7.512v3.905h6.183c0.271,0,0.516,0.244,0.516,0.515v2.956c0,0.271-0.244,0.515-0.516,0.515
		h-6.183v6.59c0,0.271-0.244,0.515-0.516,0.515h-3.199c-0.299,0-0.516-0.244-0.516-0.515V144.913z"/>
	<path fill="#3A3A3A" d="M300.608,144.126c5.424,0,9.763,4.366,9.763,9.79c0,5.423-4.339,9.735-9.763,9.735
		s-9.735-4.312-9.735-9.735C290.873,148.493,295.185,144.126,300.608,144.126z M300.608,159.313c2.983,0,5.424-2.441,5.424-5.396
		c0-2.983-2.44-5.451-5.424-5.451c-2.956,0-5.396,2.468-5.396,5.451C295.212,156.872,297.652,159.313,300.608,159.313z"/>
	<path fill="#3A3A3A" d="M319.564,153.645l-5.478-8.488c-0.218-0.353,0-0.759,0.461-0.759h3.959c0.189,0,0.353,0.135,0.434,0.244
		l3.118,5.044h0.027l3.173-5.044c0.054-0.108,0.244-0.244,0.434-0.244h3.96c0.461,0,0.705,0.407,0.461,0.759l-5.505,8.488
		l5.694,8.976c0.244,0.38,0,0.759-0.434,0.759h-3.77c-0.163,0-0.38-0.108-0.461-0.244l-3.553-5.478h-0.054l-3.471,5.478
		c-0.082,0.108-0.245,0.244-0.462,0.244h-3.77c-0.461,0-0.705-0.407-0.461-0.759L319.564,153.645z"/>
</g>
<g>
	<path fill="#3A3A3A" d="M59.617,140.482c-0.461,0.759-1.084,1.356-2.115,1.735c-0.569,1.6-1.302,4.665-1.953,10.902
		c-1.383,13.098-6.318,16.081-10.657,16.081c-4.42,0-6.264-2.549-6.264-5.044c0-2.359,1.627-4.665,4.257-4.691l0.082,2.467
		c-1.193,0-1.953,1.194-1.953,2.495c0,1.573,1.112,3.309,3.959,3.309c2.983,0,6.427-1.871,7.837-14.617
		c0.57-5.261,1.519-8.515,2.495-10.522h-0.597c-3.986,0-8.054-1.654-13.667-1.654c-5.207,0-7.837,4.149-7.837,7.918
		c0,3.146,1.817,6.047,5.532,6.047c3.742,0,5.071-2.712,5.071-5.803c0-0.488-0.027-0.977-0.081-1.492l2.44-0.434
		c0.054,0.542,0.108,1.084,0.108,1.627c0,3.959-1.898,7.458-7.512,7.458c-5.478,0-8.163-3.742-8.163-7.756
		c0-4.61,3.58-9.6,10.522-9.6c5.857,0,10.522,2.197,13.912,2.197c0.461,0,0.841-0.027,1.193-0.054
		c0.949-1.274,1.844-1.654,2.441-1.79L59.617,140.482z"/>
	<path fill="#3A3A3A" d="M56.39,162.773c-0.027-0.244-0.027-0.488-0.027-0.732c0-2.143,0.841-4.366,0.841-4.366
		c0.949-5.749,2.142-12.339,3.254-14.861c0.515-1.166,1.464-1.681,2.278-1.681c1.356,0,1.871,0.678,1.871,1.708
		c0,2.197-2.332,5.912-4.013,7.973c-0.082,0.488-0.19,0.976-0.298,1.492c0.895-1.356,2.007-2.197,3.173-2.197
		c0.949,0,1.573,0.624,1.573,1.925c0,2.522-1.763,5.749-1.763,7.973c0,0.787,0.298,0.922,0.542,0.922c0.705,0,1.6-1.519,2.793-4.638
		c0.163,0,0.759,0.217,0.759,0.38c-1.193,3.092-2.414,6.237-4.637,6.237c-0.949,0-1.844-0.759-1.844-2.414
		c0-2.929,1.763-5.939,1.763-7.891c0-0.298-0.135-0.542-0.434-0.542c-1.166,0-2.63,2.63-3.634,10.711H56.39z M62.871,142.896
		c-0.434,0-0.787,1.139-1.763,5.641c0.759-1.464,2.007-3.878,2.007-5.261C63.115,143.031,63.006,142.896,62.871,142.896z"/>
	<path fill="#3A3A3A" d="M74.369,156.292c0.163,0,0.759,0.217,0.759,0.38c-1.356,3.553-2.712,6.373-5.37,6.373
		c-2.359,0-3.335-2.169-3.335-4.719c0-3.688,2.034-8.19,5.071-8.19c1.356,0,2.034,0.977,2.034,2.224
		c0,1.925-1.627,4.528-4.827,5.044c0,0.136,0,0.271,0,0.407c0,1.627,0.461,2.929,1.708,2.929
		C72.01,160.74,73.339,159.059,74.369,156.292z M68.783,156.374c2.034-1.003,2.929-2.875,2.929-3.878
		c0-0.407-0.163-0.678-0.434-0.678C70.166,151.818,69.108,154.123,68.783,156.374z"/>
</g>
<path fill-rule="evenodd" clip-rule="evenodd" fill="#3A3A3A" d="M186.177,81.556c2.274,0,4.508,0.156,6.677,0.331
	c2.283,0.184,4.508,0.421,6.638,0.79c2.275,0.394,4.45,0.93,6.509,1.522c2.243,0.646,4.335,1.509,6.267,2.376
	c0.211-0.87,0.424-1.832,0.424-2.741c0-2.309-0.855-4.482-2.139-6.491c-1.161-1.818-2.746-3.511-4.752-4.949
	c-1.763-1.265-3.801-2.394-6.073-3.273c-2.054-0.794-4.296-1.423-6.662-1.835c-2.193-0.381-4.508-0.614-6.888-0.614
	s-4.681,0.315-6.874,0.696c-2.366,0.412-4.596,1.024-6.65,1.819c-2.272,0.879-4.294,2-6.058,3.265
	c-2.005,1.438-3.711,3.022-4.873,4.841c-1.283,2.009-2.034,4.232-2.034,6.542c0,0.903,0.186,1.771,0.395,2.636
	c1.932-0.866,4.045-1.569,6.289-2.212c2.059-0.591,4.217-1.173,6.493-1.565c2.13-0.366,4.363-0.485,6.646-0.668
	C181.68,81.851,183.901,81.556,186.177,81.556z"/>
<path fill-rule="evenodd" clip-rule="evenodd" fill="#3A3A3A" d="M224.677,101.695c-0.264-2.576-1.333-4.88-2.974-7.007
	c-1.463-1.896-3.398-3.568-5.768-5.059c-2.039-1.283-4.33-2.476-6.918-3.426c-2.302-0.845-4.781-1.613-7.434-2.172
	c-2.433-0.514-4.997-0.933-7.66-1.188c-2.502-0.241-5.096-0.344-7.747-0.344c-2.627,0-5.199,0.089-7.678,0.324
	c-2.639,0.25-5.183,0.656-7.597,1.157c-2.628,0.546-5.139,1.164-7.426,1.99c-2.568,0.927-4.885,2.093-6.921,3.346
	c-2.358,1.452-4.395,3.083-5.881,4.935c-1.672,2.082-2.491,4.504-2.833,7.033c-0.079,0.586-0.386,3.042-0.386,3.639
	c0,2.323,0.866,4.491,1.999,6.597c1.034,1.924,2.421,3.753,4.26,5.416c1.62,1.464,3.433,2.945,5.579,4.149
	c1.929,1.082,4.085,1.996,6.368,2.828c2.101,0.766,4.35,1.375,6.697,1.898c2.2,0.489,4.488,0.938,6.861,1.188
	c2.256,0.238,4.585,0.457,6.959,0.457c2.373,0,4.713-0.123,6.969-0.36c2.373-0.25,4.674-0.69,6.875-1.18
	c2.347-0.522,4.525-1.367,6.627-2.132c2.282-0.832,4.382-1.801,6.31-2.883c2.146-1.205,4.041-2.524,5.66-3.989
	c1.84-1.663,3.281-3.449,4.315-5.374c1.132-2.106,1.958-4.291,1.958-6.614C224.891,104.47,224.723,102.141,224.677,101.695z
	 M186.177,125.855c-2.605,0-5.149-0.117-7.56-0.479c-2.607-0.392-5.098-0.979-7.378-1.739c-2.549-0.849-4.843-1.993-6.85-3.223
	c-2.348-1.439-4.235-3.157-5.63-4.995c-1.623-2.14-2.488-4.487-2.488-6.974c0-1.486,0.293-2.904,0.898-4.281
	c-0.321,1.012-0.592,2.029-0.592,3.094c0,2.507,0.964,4.918,2.637,7.071c1.427,1.836,3.366,3.583,5.758,5.019
	c2.038,1.222,4.432,2.223,7.016,3.066c2.309,0.753,4.806,1.412,7.442,1.801c2.437,0.359,5.012,0.273,7.645,0.273
	c2.293,0,4.542,0.122,6.69-0.152c2.295-0.293,4.435-1.003,6.502-1.574c2.26-0.624,4.371-1.325,6.277-2.235
	c2.156-1.03,4.011-2.13,5.6-3.459c-1.518,1.543-3.36,2.89-5.59,4.091c-1.944,1.047-4.112,1.987-6.484,2.708
	c-2.149,0.653-4.466,1.088-6.883,1.424C190.937,125.604,188.593,125.855,186.177,125.855z"/>
<path fill-rule="evenodd" clip-rule="evenodd" fill="#3A3A3A" d="M209.03,262.428c-0.979,0.264-1.842,0.787-2.835,1.082
	c-0.978,0.291-1.908,0.759-2.885,1.082c-0.718,0.237-1.279,0.389-1.907,0.618c-0.432,0.158-0.893,0.216-1.288,0.361
	c-0.221,0.081-0.4,0.278-0.618,0.36c-1.074,0.408-2.131,0.681-3.143,1.082c-1.436,0.569-3.033,1.399-4.277,2.165
	c-0.234,0.144-0.528,0.229-0.722,0.36c-0.993,0.68-1.415,1.884-2.524,2.267c-1.43,0.494-3.068-0.265-4.482,0.052
	c-0.433-0.355-0.859-0.724-1.34-1.082c-0.446-0.332-0.863-0.785-1.34-1.082c-1.324-0.825-2.615-1.432-4.071-2.112
	c-1.725-0.808-3.406-1.651-5.255-2.216c-0.62-0.189-1.216-0.402-1.803-0.619c-0.589-0.217-1.127-0.526-1.7-0.721
	c-0.738-0.251-1.481-0.431-2.216-0.772c-0.695-0.324-1.591-0.652-2.216-0.825c-0.582,0.907-1.051,2.408-1.494,3.556
	c-0.17,0.441-0.143,0.927-0.258,1.392c-0.091,0.371-0.253,0.629-0.309,1.03c-0.162,1.157-0.484,2.332-0.619,3.452
	c-0.382,3.179-0.27,6.501-0.154,9.687c0.017,0.479,0.21,0.967,0.257,1.495s0.125,1.05,0.206,1.546
	c0.171,1.046,0.217,2.105,0.412,3.04c0.199,0.953,0.562,1.875,0.773,2.782c0.22,0.945,0.518,1.871,1.031,2.524
	c3.69-1.404,7.597-2.748,11.438-4.122c0.647-0.231,1.417-0.596,2.113-0.927c1.118-0.533,2.032-0.961,2.937-1.495
	c0.321-0.189,0.741-0.283,0.979-0.463c0.414-0.313,0.668-0.81,1.03-1.134c0.383-0.344,0.809-0.713,1.288-0.928
	c1.242-0.558,2.637-0.09,4.174-0.052c0.311,0.008,0.693-0.098,0.928-0.051c0.527,0.105,1.021,0.89,1.597,1.287
	c0.202,0.14,0.449,0.188,0.618,0.31c0.932,0.67,2.146,1.276,3.195,1.906c0.307,0.185,0.617,0.405,0.876,0.516
	c4.426,1.889,9.223,3.54,13.809,5.204C212.49,284.91,212.851,270.159,209.03,262.428z M184.684,273.615
	c-0.399,0.149-0.899,2.646-0.899,2.646c-0.199-2.297,0.25-3.246,0.25-3.246c0.749-0.549,3.546,0,3.546,0
	C185.933,272.966,185.083,273.466,184.684,273.615z"/>
<path fill-rule="evenodd" clip-rule="evenodd" fill="#3A3A3A" d="M227.115,241.646c0-0.874-0.238-1.801-0.258-2.73
	c-0.017-0.824-0.036-1.479-0.154-2.319c-0.083-0.592-0.045-1.234-0.154-1.752c-0.142-0.668-0.278-1.174-0.361-1.958
	c-0.094-0.893-0.361-1.719-0.515-2.575c-0.168-0.936-0.279-1.856-0.515-2.681c-0.067-0.233-0.243-0.423-0.31-0.669
	c-0.228-0.841-0.356-1.728-0.618-2.576c-0.269-0.871-0.431-1.789-0.722-2.525c-0.103-0.26-0.343-0.497-0.412-0.772
	c-0.045-0.177,0.037-0.379,0-0.567c-0.084-0.428-0.425-0.935-0.618-1.34c-0.379-0.795-0.732-1.375-1.083-2.216
	c-0.328-0.788-0.876-1.807-0.979-2.73c-0.13-1.166,0.375-2.483,0.464-3.4c0.174-1.794,0.409-3.331,0.464-5.102
	c0.061-1.985,0.361-4.071,0.412-5.926c0.024-0.901-0.062-1.818-0.052-2.576c0.007-0.522,0.174-1.022,0.155-1.546
	c-0.114-3.166-0.065-6.187-0.413-9.12c-0.053-0.449-0.246-0.884-0.309-1.34c-0.269-1.966-0.562-3.593-1.134-5.204
	c-1.679,0.054-3.233,0.253-4.688,0.567c-0.925,0.199-1.746,0.604-2.577,0.876c-3.222,1.053-5.924,2.501-8.296,4.328
	c-0.368,0.283-0.816,0.465-1.133,0.721c-0.198,0.161-0.303,0.445-0.516,0.618c-0.171,0.14-0.448,0.158-0.618,0.31
	c-0.155,0.138-0.246,0.37-0.412,0.516c-0.408,0.356-0.912,0.582-1.289,0.927c-0.378,0.348-0.685,0.797-1.081,1.186
	c-1.166,1.141-2.121,2.554-3.246,3.658c-0.403,0.396-1.164,1.001-1.598,1.082c-0.841,0.156-2.002-0.14-2.886-0.31
	c-0.993-0.189-1.992-0.2-2.834-0.36c-0.408-0.077-0.8-0.288-1.237-0.309c-3.546-0.17-6.616,0.472-9.789,0.722
	c-0.64-0.302-0.864-0.993-1.289-1.495c-0.172-0.203-0.485-0.304-0.67-0.515c-0.262-0.301-0.41-0.678-0.669-0.928
	c-0.316-0.305-0.758-0.511-1.082-0.824c-0.479-0.464-0.881-0.971-1.392-1.443c-0.495-0.458-0.936-1.036-1.443-1.442
	c-0.177-0.142-0.448-0.17-0.618-0.31c-0.371-0.304-0.569-0.789-1.082-0.876c-0.419-0.604-0.927-0.976-1.546-1.391
	c-0.822-0.551-1.68-0.9-2.525-1.442c-0.496-0.318-0.92-0.712-1.391-0.928c-0.919-0.421-1.61-0.858-2.473-1.236
	c-0.623-0.274-1.273-0.553-1.906-0.825c-0.965-0.415-2.186-0.576-3.247-0.876c-0.343-0.097-0.653-0.352-0.979-0.412
	c-0.379-0.07-0.761,0.104-1.082-0.154c-0.257,0-0.515,0-0.773,0c-0.281,0.08-0.637,0.084-0.979,0.103
	c-0.311,0.438-0.4,1.001-0.515,1.545c-0.115,0.547-0.34,1.055-0.464,1.598c-0.193,0.846-0.228,1.762-0.361,2.679
	c-0.125,0.868-0.309,1.769-0.36,2.628c-0.022,0.36,0.065,0.757,0.051,1.135c-0.01,0.282-0.149,0.558-0.154,0.824
	c-0.005,0.24,0.105,0.487,0.103,0.721c-0.02,1.904-0.226,3.804-0.052,5.823c0.03,0.346,0.178,0.685,0.206,1.03
	c0.066,0.797-0.104,1.616-0.052,2.421c0.019,0.279,0.122,0.551,0.155,0.825c0.099,0.818,0.097,1.682,0.155,2.524
	c0.015,0.219,0.101,0.456,0.103,0.67c0.003,0.213-0.109,0.401-0.103,0.619c0.008,0.251,0.184,0.49,0.206,0.772
	c0.029,0.363-0.086,0.776-0.052,1.134c0.05,0.522,0.208,1.076,0.31,1.648c0.103,0.575,0.087,1.192,0.154,1.804
	c0.148,1.349,0.404,2.856,0.155,4.122c-0.058,0.295-0.242,0.598-0.361,0.927c-0.115,0.321-0.142,0.696-0.258,0.979
	c-0.214,0.523-0.605,0.978-0.927,1.442c-0.165,0.238-0.22,0.549-0.361,0.825c-0.135,0.264-0.353,0.485-0.463,0.721
	c-0.418,0.893-0.655,1.915-1.031,2.938c-0.112,0.304-0.319,0.581-0.412,0.876c-0.15,0.474-0.15,1.065-0.309,1.598
	c-0.108,0.36-0.36,0.705-0.464,1.081c-0.129,0.472-0.154,1.009-0.257,1.547c-0.089,0.462-0.285,0.932-0.361,1.391
	c-0.065,0.397-0.015,0.788-0.103,1.185c-0.087,0.399-0.299,0.749-0.36,1.134c-0.048,0.303,0.041,0.6,0,0.928
	c-0.05,0.406-0.306,0.787-0.361,1.186c-0.102,0.737-0.028,1.502-0.206,2.215c-0.047,0.189-0.19,0.389-0.206,0.567
	c-0.02,0.223,0.112,0.46,0.103,0.67c-0.009,0.213-0.13,0.447-0.154,0.669s0.021,0.469,0,0.671c-0.045,0.434-0.274,0.858-0.31,1.288
	c-0.04,0.492,0.144,1.147-0.051,1.545c0,0.292,0,0.585,0,0.877c0.132,1.099,0.188,2.212,0,3.298c0,0.223,0,0.446,0,0.67
	c0.157,0.649,0.211,1.52,0,2.164c0,0.068,0,0.137,0,0.206c0.107,0.234,0.163,0.712,0,0.927c0,0.172,0,0.344,0,0.516
	c0.223,0.43,0.442,0.864,0.67,1.288c1.602,0.022,1.975-1.185,3.194-1.546c2.022,1.448,2.695,4.244,5.771,4.638
	c0.839-1.123-0.774-1.859-0.67-2.886c0.957,0.147,1.327,1.356,2.525,0.928c0.337-0.247,0.209-0.959,0.67-1.082
	c1.323,0.441,1.668,2.367,3.607,1.854c0.351-2.391-2.15-3.062-1.701-5.719c1.395-0.076,2.785,0.623,3.916,0.927
	c0.688,0.186,1.31,0.273,1.855,0.567c0.219,0.117,0.378,0.302,0.619,0.412c1.075,0.492,1.85,0.893,2.782,1.649
	c0.713,0.576,1.544,0.968,2.113,1.493c0.214,0.198,0.304,0.492,0.515,0.67c0.17,0.144,0.437,0.208,0.619,0.361
	c0.647,0.545,1.143,1.297,1.752,1.906c0.246,0.246,0.54,0.379,0.773,0.618c0.226,0.232,0.457,0.479,0.669,0.722
	c1.436,1.642,3.866,3.238,4.724,5.267c0.835,1.975,2.054,3.632,4.293,4.111c0.226,0.048,0.448-0.029,0.67,0
	c0.472,0.062,0.82,0.267,1.236,0.258c0.267-0.006,0.527-0.15,0.825-0.155c0.231-0.004,0.446,0.123,0.67,0.104
	c0.188-0.017,0.396-0.214,0.67-0.258c0.181-0.029,0.403,0.036,0.566,0c0.193-0.043,0.334-0.219,0.566-0.31
	c0.242-0.093,0.562-0.083,0.722-0.153c2.199-0.971,2.276-3.263,3.699-4.896c0.773-0.889,1.568-1.759,2.515-2.467
	c0.768-0.574,1.363-1.372,2.134-1.914c0.146-0.103,0.367-0.097,0.515-0.206c0.172-0.125,0.289-0.364,0.464-0.515
	c0.551-0.475,1.119-0.86,1.598-1.34c0.655-0.655,1.455-1.208,2.216-1.752c1.171-0.837,2.166-1.739,3.452-2.422
	c0.437-0.231,0.81-0.641,1.185-0.824c0.178-0.086,0.425-0.121,0.619-0.206c0.404-0.179,0.754-0.53,1.133-0.67
	c0.203-0.075,0.435-0.039,0.67-0.103c0.399-0.109,0.79-0.376,1.186-0.464c0.812-0.182,1.75-0.236,2.628-0.206
	c0.082,2.341-2.079,3.234-1.649,5.462c1.906,0.256,2.295-1.449,3.71-1.855c0.046,0.76,0.364,1.338,0.928,1.34
	c0.804,0.002,1.09-1.255,1.906-1.03c0.309,0.626-0.791,1.25-0.875,1.854c-0.053,0.376,0.152,0.963,0.412,1.03
	c0.316,0.084,1.104-0.385,1.34-0.515c0.231-0.128,0.446-0.339,0.721-0.567c0.232-0.192,0.576-0.323,0.772-0.515
	c0.18-0.175,0.236-0.471,0.413-0.67c0.165-0.187,0.402-0.341,0.566-0.516c0.429-0.459,1.211-1.695,1.958-1.648
	c0.471,0.029,0.739,0.668,1.134,0.876c0.473,0.249,0.783,0.283,1.546,0.309c0.293-2.159,0.233-4.271,0.412-6.544
	c0-0.103,0-0.206,0-0.309C226.878,242.871,227.115,242.262,227.115,241.646z M217.1,224.871c-1.229-1.812-2.932-3.201-4.812-4.11
	c-1.893-0.899-3.978-1.299-6.067-1.281c-0.471-0.002-0.94,0.021-1.407,0.062c-0.207,5.918-6.135,5.51-8.35,5.147
	c-0.072,0.144-0.14,0.289-0.187,0.406c-0.52,2.613-1.016,5.232-1.557,7.841l-1.625,7.898c-0.539,2.634-1.083,5.267-1.655,7.894
	c-0.564,2.628-1.122,5.257-1.713,7.88l-0.031,0.137l-0.058,0.089l-0.001,0.003c-0.318,0.527-0.7,1.048-1.235,1.487
	c-0.522,0.439-1.292,0.762-2.06,0.699c-0.765-0.053-1.405-0.391-1.925-0.775c-0.527-0.4-0.943-0.829-1.342-1.371l-0.003-0.005
	l-0.076-0.107l-0.036-0.156c-0.591-2.623-1.147-5.252-1.712-7.88c-0.572-2.627-1.116-5.26-1.655-7.894l-1.625-7.898
	c-0.54-2.609-1.037-5.228-1.557-7.841c-0.05-0.126-0.125-0.287-0.204-0.442c-2.027,0.365-8.351,1-8.554-5.128
	c-0.394-0.028-0.79-0.048-1.186-0.046c-2.09-0.017-4.175,0.383-6.066,1.283c-1.878,0.909-3.582,2.299-4.807,4.11l-0.042-0.02
	c0.801-2.068,2.413-3.815,4.358-4.995c1.957-1.193,4.268-1.75,6.54-1.805c2.266-0.053,4.619,0.353,6.699,1.45
	c1.035,0.547,1.991,1.257,2.808,2.105c0.409,0.425,0.784,0.881,1.12,1.368c0.167,0.243,0.325,0.495,0.472,0.757
	c0.15,0.271,0.276,0.509,0.413,0.851l0.018,0.044l0.015,0.071c0.553,2.63,1.131,5.256,1.664,7.891l1.608,7.902
	c0.54,2.633,1.073,5.269,1.579,7.907c0.248,1.273,0.497,2.546,0.743,3.818h5.51c0.246-1.272,0.495-2.545,0.743-3.818
	c0.506-2.64,1.04-5.274,1.579-7.907l1.608-7.902c0.532-2.635,1.111-5.261,1.664-7.891l0.015-0.071l0.019-0.045
	c0.136-0.341,0.262-0.578,0.411-0.851c0.147-0.261,0.305-0.513,0.474-0.756c0.335-0.487,0.71-0.944,1.119-1.368
	c0.816-0.849,1.771-1.559,2.808-2.105c2.08-1.099,4.434-1.503,6.699-1.45c2.271,0.056,4.583,0.612,6.539,1.807
	c1.945,1.18,3.556,2.929,4.354,4.996L217.1,224.871z"/>
</svg>
