<?xml version="1.0" encoding="utf-8"?>
<!-- Generator: Adobe Illustrator 16.0.0, SVG Export Plug-In . SVG Version: 6.00 Build 0)  -->
<!DOCTYPE svg PUBLIC "-//W3C//DTD SVG 1.1//EN" "http://www.w3.org/Graphics/SVG/1.1/DTD/svg11.dtd">
<svg version="1.1" id="Layer_1" xmlns="http://www.w3.org/2000/svg" xmlns:xlink="http://www.w3.org/1999/xlink" x="0px" y="0px"
	 width="600px" height="93.913px" viewBox="0 0 600 93.913" enable-background="new 0 0 600 93.913" xml:space="preserve">
<g>
	<path fill="#3A3A3A" d="M115.206,28.61c0-0.518,0.466-0.984,0.984-0.984h6.165c0.57,0,0.984,0.466,0.984,0.984v13.054h14.815V28.61
		c0-0.518,0.415-0.984,0.985-0.984h6.164c0.518,0,0.984,0.466,0.984,0.984v34.294c0,0.518-0.466,0.984-0.984,0.984h-6.164
		c-0.57,0-0.985-0.467-0.985-0.984V49.279h-14.815v13.625c0,0.518-0.414,0.984-0.984,0.984h-6.165c-0.518,0-0.984-0.467-0.984-0.984
		V28.61z"/>
	<path fill="#3A3A3A" d="M155.716,62.541l16.214-34.863c0.155-0.311,0.518-0.569,0.88-0.569h0.518c0.363,0,0.725,0.259,0.88,0.569
		l16.215,34.863c0.311,0.674-0.104,1.348-0.881,1.348h-5.75c-0.933,0-1.347-0.312-1.813-1.295l-1.865-4.094h-14.09l-1.865,4.145
		c-0.259,0.622-0.829,1.244-1.865,1.244h-5.698C155.819,63.888,155.405,63.214,155.716,62.541z M177.007,51.455l-3.937-8.547h-0.052
		l-3.885,8.547H177.007z"/>
	<path fill="#3A3A3A" d="M198.815,28.61c0-0.518,0.414-0.984,0.984-0.984h12.07c6.113,0,11.137,4.196,11.137,9.635
		c0,3.989-3.574,6.89-6.009,8.185c2.746,1.14,6.941,3.678,6.941,8.444c0,5.802-5.128,9.998-11.293,9.998h-12.847
		c-0.57,0-0.984-0.467-0.984-0.984V28.61z M210.937,42.337c1.968,0,3.626-1.657,3.626-3.729s-1.658-3.522-3.626-3.522h-4.041v7.252
		H210.937z M211.61,56.48c2.021,0,3.73-1.658,3.73-3.781c0-2.072-2.228-3.627-4.248-3.627h-4.196v7.408H211.61z"/>
	<path fill="#3A3A3A" d="M235.699,28.61c0-0.518,0.415-0.984,0.984-0.984h21.446c0.57,0,0.984,0.466,0.984,0.984v5.646
		c0,0.518-0.415,0.984-0.984,0.984h-14.349v6.423h11.811c0.518,0,0.984,0.466,0.984,0.984v5.646c0,0.57-0.466,0.984-0.984,0.984
		h-11.811v6.994h14.349c0.57,0,0.984,0.466,0.984,0.984v5.646c0,0.518-0.415,0.984-0.984,0.984h-21.446
		c-0.57,0-0.984-0.467-0.984-0.984V28.61z"/>
	<path fill="#3A3A3A" d="M271.236,28.61c0-0.518,0.414-0.984,0.984-0.984h15.489c6.216,0,11.292,5.024,11.292,11.189
		c0,4.766-3.16,8.6-7.666,10.413l7.097,13.157c0.363,0.673,0,1.503-0.88,1.503h-6.89c-0.414,0-0.725-0.26-0.829-0.467l-6.89-13.729
		h-3.575v13.211c0,0.518-0.466,0.984-0.984,0.984h-6.165c-0.57,0-0.984-0.467-0.984-0.984V28.61z M287.036,43.115
		c2.124,0,3.937-1.969,3.937-4.144c0-2.176-1.813-3.938-3.937-3.938h-7.667v8.082H287.036z"/>
	<path fill="#3A3A3A" d="M310.089,28.61c0-0.518,0.415-0.984,0.932-0.984h12.641c9.998,0,18.183,8.133,18.183,18.079
		c0,10.05-8.185,18.184-18.183,18.184h-12.641c-0.517,0-0.932-0.467-0.932-0.984V28.61z M323.144,56.22
		c5.854,0,10.102-4.609,10.102-10.516c0-5.854-4.248-10.464-10.102-10.464h-4.974V56.22H323.144z"/>
	<path fill="#3A3A3A" d="M346.248,62.541l16.214-34.863c0.155-0.311,0.518-0.569,0.881-0.569h0.518c0.363,0,0.726,0.259,0.881,0.569
		l16.215,34.863c0.311,0.674-0.104,1.348-0.881,1.348h-5.75c-0.933,0-1.348-0.312-1.813-1.295l-1.865-4.094h-14.09l-1.865,4.145
		c-0.259,0.622-0.829,1.244-1.865,1.244h-5.698C346.351,63.888,345.937,63.214,346.248,62.541z M367.539,51.455l-3.938-8.547h-0.052
		l-3.886,8.547H367.539z"/>
	<path fill="#3A3A3A" d="M386.239,58.966l2.435-4.3c0.414-0.673,1.398-0.569,1.762-0.311c0.207,0.104,3.937,2.849,7.355,2.849
		c2.072,0,3.574-1.295,3.574-3.107c0-2.176-1.812-3.834-5.336-5.232c-4.455-1.761-10.049-5.232-10.049-11.448
		c0-5.129,3.988-10.309,11.966-10.309c5.388,0,9.532,2.745,11.086,3.885c0.622,0.363,0.518,1.295,0.311,1.658l-2.642,3.989
		c-0.362,0.57-1.295,1.036-1.761,0.674c-0.467-0.259-4.248-3.108-7.408-3.108c-1.865,0-3.264,1.243-3.264,2.642
		c0,1.917,1.554,3.367,5.646,5.025c4.041,1.605,10.465,4.766,10.465,11.812c0,5.335-4.61,10.723-12.226,10.723
		c-6.734,0-10.464-2.797-11.655-3.988C385.98,59.899,385.825,59.692,386.239,58.966z"/>
	<path fill="#3A3A3A" d="M420.843,28.61c0-0.518,0.467-0.984,0.983-0.984h6.165c0.57,0,0.985,0.466,0.985,0.984v13.054h14.814V28.61
		c0-0.518,0.415-0.984,0.984-0.984h6.165c0.518,0,0.984,0.466,0.984,0.984v34.294c0,0.518-0.467,0.984-0.984,0.984h-6.165
		c-0.569,0-0.984-0.467-0.984-0.984V49.279h-14.814v13.625c0,0.518-0.415,0.984-0.985,0.984h-6.165
		c-0.517,0-0.983-0.467-0.983-0.984V28.61z"/>
	<path fill="#3A3A3A" d="M477.463,28.61c0-0.518,0.414-0.984,0.984-0.984h21.446c0.569,0,0.984,0.466,0.984,0.984v5.646
		c0,0.518-0.415,0.984-0.984,0.984h-14.35V42.7h11.811c0.519,0,0.985,0.466,0.985,0.984v5.647c0,0.518-0.467,0.984-0.985,0.984
		h-11.811v12.588c0,0.518-0.466,0.984-0.984,0.984h-6.112c-0.57,0-0.984-0.467-0.984-0.984V28.61z"/>
	<path fill="#3A3A3A" d="M527.764,27.108c10.36,0,18.648,8.34,18.648,18.701s-8.288,18.597-18.648,18.597
		c-10.361,0-18.598-8.236-18.598-18.597S517.402,27.108,527.764,27.108z M527.764,56.117c5.698,0,10.36-4.662,10.36-10.308
		c0-5.698-4.662-10.413-10.36-10.413c-5.646,0-10.31,4.714-10.31,10.413C517.454,51.455,522.117,56.117,527.764,56.117z"/>
	<path fill="#3A3A3A" d="M563.974,45.291L553.51,29.076c-0.415-0.673,0-1.45,0.881-1.45h7.562c0.363,0,0.674,0.259,0.829,0.466
		l5.957,9.635h0.052l6.061-9.635c0.104-0.207,0.467-0.466,0.829-0.466h7.563c0.881,0,1.347,0.777,0.881,1.45l-10.516,16.214
		l10.878,17.146c0.467,0.726,0,1.451-0.829,1.451h-7.2c-0.312,0-0.726-0.208-0.881-0.467l-6.786-10.465h-0.104l-6.63,10.465
		c-0.156,0.207-0.467,0.467-0.881,0.467h-7.201c-0.881,0-1.347-0.777-0.881-1.451L563.974,45.291z"/>
</g>
<g>
	<path fill="#3A3A3A" d="M67.409,20.146c-0.881,1.45-2.072,2.59-4.041,3.315c-1.087,3.056-2.486,8.91-3.729,20.825
		c-2.642,25.021-12.07,30.719-20.358,30.719c-8.444,0-11.966-4.869-11.966-9.635c0-4.508,3.108-8.91,8.133-8.963l0.156,4.715
		c-2.28,0-3.73,2.279-3.73,4.766c0,3.004,2.124,6.32,7.563,6.32c5.698,0,12.277-3.574,14.971-27.922
		c1.088-10.05,2.901-16.266,4.766-20.1h-1.14c-7.615,0-15.386-3.16-26.108-3.16c-9.946,0-14.971,7.926-14.971,15.126
		c0,6.009,3.471,11.551,10.568,11.551c7.149,0,9.687-5.18,9.687-11.085c0-0.933-0.052-1.865-0.155-2.849l4.662-0.829
		c0.104,1.036,0.207,2.072,0.207,3.108c0,7.563-3.626,14.246-14.349,14.246c-10.464,0-15.593-7.149-15.593-14.815
		c0-8.807,6.838-18.338,20.1-18.338c11.189,0,20.1,4.196,26.575,4.196c0.881,0,1.606-0.051,2.279-0.103
		c1.813-2.435,3.522-3.16,4.663-3.419L67.409,20.146z"/>
	<path fill="#3A3A3A" d="M61.245,62.728c-0.052-0.466-0.052-0.933-0.052-1.398c0-4.093,1.606-8.34,1.606-8.34
		c1.813-10.983,4.092-23.571,6.216-28.389c0.984-2.227,2.797-3.211,4.351-3.211c2.59,0,3.575,1.295,3.575,3.263
		c0,4.196-4.455,11.293-7.667,15.23c-0.155,0.932-0.362,1.865-0.57,2.849c1.709-2.59,3.833-4.196,6.061-4.196
		c1.813,0,3.004,1.191,3.004,3.678c0,4.817-3.367,10.982-3.367,15.23c0,1.502,0.57,1.761,1.036,1.761
		c1.347,0,3.056-2.901,5.336-8.858c0.311,0,1.45,0.414,1.45,0.726c-2.279,5.905-4.61,11.915-8.858,11.915
		c-1.813,0-3.522-1.451-3.522-4.611c0-5.594,3.367-11.345,3.367-15.074c0-0.57-0.259-1.036-0.829-1.036
		c-2.228,0-5.025,5.025-6.942,20.462H61.245z M73.625,24.757c-0.829,0-1.502,2.176-3.367,10.775c1.45-2.797,3.833-7.408,3.833-10.05
		C74.092,25.016,73.884,24.757,73.625,24.757z"/>
	<path fill="#3A3A3A" d="M95.59,50.347c0.311,0,1.451,0.414,1.451,0.726c-2.59,6.786-5.181,12.173-10.257,12.173
		c-4.507,0-6.372-4.144-6.372-9.014c0-7.045,3.885-15.644,9.687-15.644c2.59,0,3.885,1.865,3.885,4.248
		c0,3.678-3.108,8.651-9.221,9.635c0,0.259,0,0.519,0,0.776c0,3.109,0.88,5.596,3.264,5.596
		C91.083,58.843,93.622,55.631,95.59,50.347z M84.918,50.502c3.885-1.917,5.595-5.491,5.595-7.408c0-0.777-0.311-1.295-0.829-1.295
		C87.561,41.8,85.54,46.203,84.918,50.502z"/>
</g>
</svg>
