<?xml version="1.0" encoding="utf-8"?>
<!-- Generator: Adobe Illustrator 17.0.0, SVG Export Plug-In . SVG Version: 6.00 Build 0)  -->
<!DOCTYPE svg PUBLIC "-//W3C//DTD SVG 1.1//EN" "http://www.w3.org/Graphics/SVG/1.1/DTD/svg11.dtd">
<svg version="1.1" id="Layer_1" xmlns="http://www.w3.org/2000/svg" xmlns:xlink="http://www.w3.org/1999/xlink" x="0px" y="0px"
	 width="500px" height="500px" viewBox="0 0 500 500" enable-background="new 0 0 500 500" xml:space="preserve">
<g>
	<path fill="#C49C5D" d="M48.17,371.368h-3.474v8.24h-2.952v-20.661h6.241c5.227,0,7.164,3.197,7.164,6.148
		C55.149,369.37,51.675,371.368,48.17,371.368z M47.77,361.622h-3.074v7.071h3.197c2.429,0,4.059-1.229,4.059-3.536
		C51.952,363.374,50.999,361.622,47.77,361.622z"/>
	<path fill="#C49C5D" d="M60.163,379.608v-20.661H73.23v2.675H63.115v5.564h7.902v2.675h-7.902v7.072H73.23v2.675H60.163z"/>
	<path fill="#C49C5D" d="M90.911,379.608l-6.457-9.224h-2.706v9.224h-2.952v-20.661h5.903c4.766,0,6.549,3.289,6.549,5.719
		c0,2.613-1.599,4.335-3.659,5.165l6.887,9.777H90.911z M84.301,361.622h-2.552v6.088h2.583c2.736,0,3.782-1.477,3.782-3.137
		C88.113,362.76,86.699,361.622,84.301,361.622z"/>
	<path fill="#C49C5D" d="M116.737,379.608v-16.296l-7.379,9.348l-7.379-9.348v16.296h-2.952v-20.661h2.952l7.379,9.562l7.379-9.562
		h2.952v20.661H116.737z"/>
	<path fill="#C49C5D" d="M140.725,379.608l-2.09-5.227h-9.409l-2.091,5.227h-3.167l8.579-20.877h2.767l8.578,20.877H140.725z
		 M133.93,362.145l-3.628,9.562h7.256L133.93,362.145z"/>
	<path fill="#C49C5D" d="M164.036,379.608l-12.913-16.265v16.265h-2.952v-20.661h2.952l12.913,16.265v-16.265h2.952v20.661H164.036z
		"/>
	<path fill="#C49C5D" d="M173.57,379.608v-20.661h13.067v2.675h-10.115v5.564h7.902v2.675h-7.902v7.072h10.115v2.675H173.57z"/>
	<path fill="#C49C5D" d="M208.069,379.608l-12.913-16.265v16.265h-2.952v-20.661h2.952l12.913,16.265v-16.265h2.952v20.661H208.069z
		"/>
	<path fill="#C49C5D" d="M225.14,361.622v17.986h-2.952v-17.986h-6.549v-2.675h16.05v2.675H225.14z"/>
	<path fill="#C49C5D" d="M260.779,361.283c-4.366,0-7.841,3.444-7.841,7.994c0,4.551,3.475,7.994,7.841,7.994
		c2.644,0,5.072-0.922,7.225-2.46v3.198c-2.152,1.291-4.673,2.029-7.225,2.029c-6.026,0-10.977-4.428-10.977-10.762
		s4.951-10.761,10.977-10.761c2.613,0,4.98,0.769,7.256,2.091v3.197C265.79,362.329,263.054,361.283,260.779,361.283z"/>
	<path fill="#C49C5D" d="M283.903,380.039c-6.026,0-10.977-4.428-10.977-10.762s4.95-10.761,10.977-10.761
		c6.025,0,10.976,4.427,10.976,10.761S289.929,380.039,283.903,380.039z M283.903,361.283c-4.366,0-7.841,3.444-7.841,7.994
		c0,4.551,3.475,7.994,7.841,7.994c4.365,0,7.84-3.443,7.84-7.994C291.743,364.728,288.269,361.283,283.903,361.283z"/>
	<path fill="#C49C5D" d="M300.847,379.608v-20.661h2.952v17.986h9.716v2.675H300.847z"/>
	<path fill="#C49C5D" d="M318.131,379.608v-20.661h2.952v17.986h9.716v2.675H318.131z"/>
	<path fill="#C49C5D" d="M335.414,379.608v-20.661h13.067v2.675h-10.115v5.564h7.901v2.675h-7.901v7.072h10.115v2.675H335.414z"/>
	<path fill="#C49C5D" d="M363.33,361.283c-4.366,0-7.841,3.444-7.841,7.994c0,4.551,3.475,7.994,7.841,7.994
		c2.644,0,5.072-0.922,7.225-2.46v3.198c-2.152,1.291-4.673,2.029-7.225,2.029c-6.026,0-10.977-4.428-10.977-10.762
		s4.95-10.761,10.977-10.761c2.613,0,4.98,0.769,7.256,2.091v3.197C368.341,362.329,365.604,361.283,363.33,361.283z"/>
	<path fill="#C49C5D" d="M383.838,361.622v17.986h-2.951v-17.986h-6.549v-2.675h16.049v2.675H383.838z"/>
	<path fill="#C49C5D" d="M395.004,379.608v-20.661h2.952v20.661H395.004z"/>
	<path fill="#C49C5D" d="M414.898,380.039c-6.026,0-10.977-4.428-10.977-10.762s4.95-10.761,10.977-10.761
		c6.025,0,10.976,4.427,10.976,10.761S420.924,380.039,414.898,380.039z M414.898,361.283c-4.366,0-7.841,3.444-7.841,7.994
		c0,4.551,3.475,7.994,7.841,7.994c4.365,0,7.84-3.443,7.84-7.994C422.738,364.728,419.264,361.283,414.898,361.283z"/>
	<path fill="#C49C5D" d="M447.707,379.608l-12.913-16.265v16.265h-2.952v-20.661h2.952l12.913,16.265v-16.265h2.952v20.661H447.707z
		"/>
</g>
<g>
	<path fill="#C49C5D" d="M177.222,219.632c0,38.246,30.447,69.509,68.375,70.837v-29.115v-5.021V148.796
		C207.669,150.123,177.222,181.386,177.222,219.632z M244.031,152.314v136.514c-17.357-1.01-33.538-8.436-45.72-21.022
		c-12.371-12.782-19.276-29.524-19.512-47.235c0.236-17.711,7.141-34.453,19.512-47.235
		C210.493,160.751,226.674,153.323,244.031,152.314z"/>
	<path fill="#C49C5D" d="M363.363,203.207c0-63.552-51.704-115.256-115.256-115.256s-115.256,51.704-115.256,115.256
		c0,0.314,0.009,0.626,0.012,0.939c-0.003,0.313-0.012,0.625-0.012,0.939c0,63.552,51.704,115.256,115.256,115.256
		s115.256-51.704,115.256-115.256c0-0.314-0.009-0.626-0.012-0.939C363.354,203.833,363.363,203.521,363.363,203.207z
		 M248.108,316.897c-62.69,0-113.691-51.001-113.691-113.69c0-62.69,51.001-113.691,113.691-113.691
		c62.689,0,113.69,51.001,113.69,113.691C361.798,265.896,310.797,316.897,248.108,316.897z"/>
	<path fill="#C49C5D" d="M250.618,148.795v107.551c37.928-1.328,68.375-32.591,68.375-70.837c0-38.246-30.447-69.509-68.375-70.836
		v29.098c19.222,0.629,36.648,8.449,49.699,20.839l-3.486,3.609C284.685,156.702,268.487,149.422,250.618,148.795z M302.541,166.44
		l-0.031-0.029v-1.818l0.031-0.032l-1.145-1.087c-13.425-12.746-30.849-20.241-49.211-21.204v-24.079
		c17.357,1.009,33.538,8.437,45.72,21.023c12.371,12.782,19.276,29.524,19.513,47.235c-0.236,17.711-7.141,34.453-19.513,47.234
		c-12.182,12.586-28.363,20.013-45.72,21.023V152.314c16.253,0.953,31.67,7.635,43.57,18.919l1.125,1.067L302.541,166.44z"/>
	<path fill="#C49C5D" d="M248.108,94.538c-59.921,0-108.669,48.749-108.669,108.669c0,59.081,47.393,107.297,106.159,108.637
		v-16.351c-40.698-1.33-73.397-34.846-73.397-75.861s32.699-74.532,73.397-75.861v-29.083v-2.574v-2.447
		c0.835-0.027,1.669-0.064,2.511-0.064c41.856,0,75.907,34.052,75.907,75.907c0,41.015-32.699,74.532-73.397,75.861v29.097
		c19.169-0.672,36.415-8.999,48.797-22.002l3.379,3.728c-13.279,13.81-31.71,22.629-52.175,23.299v16.351
		c58.765-1.339,106.158-49.556,106.158-108.637C356.776,143.286,308.028,94.538,248.108,94.538z M324.615,278.084
		c-19.323,19.739-44.991,31.118-72.432,32.147v-11.358c19.662-1.024,37.984-9.41,51.738-23.715l1.013-1.053l-0.008-0.008
		l0.022,0.006v-1.879l-0.022,0.01l0.007-0.008l-5.491-6.06l-1.162,1.221c-12.231,12.844-28.547,20.42-46.098,21.441V264.75
		c19.551-1.018,37.796-9.313,51.518-23.46c14.109-14.545,21.878-33.688,21.878-53.902c0-0.305-0.008-0.609-0.012-0.913
		c0.004-0.322,0.012-0.643,0.012-0.966c0-42.719-34.754-77.473-77.473-77.473c-0.695,0-1.385,0.024-2.075,0.048l-2.002,0.067v1.879
		v32.24c-19.551,1.018-37.796,9.313-51.518,23.459c-14.109,14.545-21.878,33.688-21.878,53.903c0,0.314,0.007,0.626,0.011,0.939
		c-0.004,0.313-0.011,0.626-0.011,0.939c0,20.215,7.77,39.357,21.878,53.902c13.722,14.147,31.967,22.442,51.518,23.46v11.358
		c-27.441-1.03-53.108-12.408-72.432-32.147c-19.504-19.923-30.339-46.14-30.584-73.913
		c0.494-58.637,48.341-106.188,107.092-106.188c58.751,0,106.597,47.552,107.092,106.188
		C354.954,231.944,344.12,258.16,324.615,278.084z"/>
</g>
</svg>
