<?xml version="1.0" encoding="utf-8"?>
<!-- Generator: Adobe Illustrator 16.0.0, SVG Export Plug-In . SVG Version: 6.00 Build 0)  -->
<!DOCTYPE svg PUBLIC "-//W3C//DTD SVG 1.1//EN" "http://www.w3.org/Graphics/SVG/1.1/DTD/svg11.dtd">
<svg version="1.1" id="Layer_1" xmlns="http://www.w3.org/2000/svg" xmlns:xlink="http://www.w3.org/1999/xlink" x="0px" y="0px"
	 width="640.333px" height="176.333px" viewBox="0 0 640.333 176.333" enable-background="new 0 0 640.333 176.333"
	 xml:space="preserve">
<g>
	<path fill="#FFFFFF" d="M63.733,75.832l-7.163-8.489l-3.183,1.592c-2.875,1.238-5.925,1.857-9.152,1.857
		c-3.316,0-6.411-0.619-9.285-1.857c-1.415-0.619-2.752-1.359-4.012-2.222c-1.26-0.862-2.399-1.801-3.416-2.818v0.066
		c-1.105-1.061-2.056-2.222-2.852-3.482c-0.796-1.26-1.504-2.597-2.122-4.012c-1.283-3.094-1.923-6.189-1.923-9.284v-2.719h5.504
		v2.719c0,2.52,0.475,4.874,1.426,7.062c0.95,2.188,2.243,4.102,3.879,5.737c1.635,1.636,3.559,2.929,5.77,3.879
		c2.21,0.951,4.553,1.426,7.03,1.426c1.502,0,3.006-0.209,4.51-0.63c1.502-0.42,2.895-0.962,4.178-1.625l-26.66-31.434l1.99-1.725
		h-0.066c2.21-2.078,4.675-3.636,7.395-4.675c2.719-1.038,5.604-1.559,8.654-1.559c3.006,0,6.057,0.62,9.152,1.857
		c1.415,0.62,2.741,1.349,3.979,2.188c1.237,0.84,2.387,1.791,3.449,2.852c2.122,2.167,3.823,4.665,5.106,7.494
		c1.193,2.918,1.791,5.969,1.791,9.152c0,3.272-0.597,6.366-1.791,9.284c-0.664,1.416-1.404,2.752-2.222,4.012
		c-0.819,1.26-1.78,2.421-2.885,3.482l7.029,8.157L63.733,75.832z M57.367,59.651c1.547-1.592,2.741-3.459,3.581-5.604
		c0.839-2.144,1.26-4.432,1.26-6.864c0-2.476-0.476-4.808-1.426-6.997c-0.952-2.188-2.233-4.1-3.847-5.736
		c-1.614-1.635-3.515-2.928-5.703-3.88c-2.188-0.95-4.521-1.426-6.997-1.426c-3.891,0-7.295,1.04-10.213,3.117L57.367,59.651z"/>
	<path fill="#FFFFFF" d="M95.962,70.858c-5.836,0-10.279-1.702-13.33-5.106c-1.194-1.237-2.089-2.575-2.686-4.012
		c-0.597-1.436-1.028-2.774-1.293-4.012c-0.265-1.237-0.409-2.298-0.431-3.183c-0.023-0.884-0.033-1.437-0.033-1.658V23.64h5.504
		v29.379c0,1.238,0.077,2.311,0.232,3.216c0.154,0.907,0.441,1.88,0.862,2.918c0.42,1.039,1.028,1.979,1.824,2.818
		c2.166,2.255,5.283,3.382,9.351,3.382c4.245,0,7.339-1.083,9.285-3.25c0.619-0.707,1.094-1.469,1.426-2.288
		c0.332-0.817,0.564-1.602,0.696-2.354c0.133-0.751,0.199-1.426,0.199-2.023s0-1.005,0-1.227V23.441h5.438v30.506
		c0,0.398-0.012,1.028-0.033,1.89c-0.023,0.862-0.144,1.835-0.365,2.918c-0.222,1.084-0.586,2.233-1.094,3.449
		c-0.509,1.216-1.227,2.377-2.155,3.481c-1.504,1.592-3.394,2.852-5.67,3.78C101.411,70.394,98.836,70.858,95.962,70.858z"/>
	<path fill="#FFFFFF" d="M157.041,71.19l-15.187-35.48l-15.121,35.48l-5.04-2.122l20.161-47.285l20.16,47.218L157.041,71.19z"/>
	<path fill="#FFFFFF" d="M199.351,70.792h-28.317V23.574h5.504v41.713h22.813V70.792z"/>
	<path fill="#FFFFFF" d="M212.149,70.792h-5.504V23.375h5.504V70.792z"/>
	<path fill="#FFFFFF" d="M234.366,70.792V29.078H218.45v-5.504h37.734v5.504H239.87v41.714H234.366z"/>
	<path fill="#FFFFFF" d="M283.308,70.858h-5.438V51.494c-2.785-4.112-5.648-8.333-8.588-12.667
		c-2.941-4.333-5.803-8.555-8.588-12.667l4.576-3.05l15.385,22.614l15.452-22.681l4.51,3.183L283.308,51.56V70.858z"/>
	<path fill="#FFFFFF" d="M344.651,72.715L323.96,25.431l5.04-2.188l15.718,35.944l15.85-35.944l4.974,2.188L344.651,72.715z"/>
	<path fill="#FFFFFF" d="M378.007,70.792h-5.504V23.375h5.504V70.792z"/>
	<path fill="#FFFFFF" d="M409.973,51.295l-17.707,21.619V20.722l29.843,36.74V23.176h5.57v49.937L409.973,51.295z M397.836,57.33
		c1.415-1.724,2.829-3.416,4.244-5.073c1.415-1.658,2.853-3.416,4.312-5.272c-0.841-1.016-1.592-1.934-2.255-2.752
		c-0.663-0.817-1.305-1.613-1.924-2.388c-0.619-0.773-1.282-1.58-1.989-2.42c-0.708-0.839-1.504-1.812-2.388-2.918V57.33z"/>
	<path fill="#FFFFFF" d="M453.012,70.792V29.078h-15.916v-5.504h37.734v5.504h-16.314v41.714H453.012z"/>
	<path fill="#FFFFFF" d="M510.641,71.19l-15.187-35.48l-15.12,35.48l-5.04-2.122l20.16-47.285l20.161,47.218L510.641,71.19z"/>
	<path fill="#FFFFFF" d="M544.064,70.792c-3.095,0-6.167-0.64-9.218-1.923c-2.875-1.193-5.395-2.852-7.561-4.974
		c-2.167-2.166-3.847-4.664-5.04-7.494c-1.283-3.094-1.923-6.167-1.923-9.218c0-3.051,0.64-6.101,1.923-9.152
		c0.618-1.415,1.337-2.763,2.155-4.045c0.817-1.282,1.779-2.431,2.885-3.449v0.066c1.149-1.149,2.343-2.132,3.581-2.951
		c1.237-0.817,2.563-1.536,3.979-2.155v0.066c3.094-1.237,6.167-1.857,9.218-1.857c3.184,0,6.3,0.642,9.351,1.923l-0.066-0.066
		c2.785,1.15,5.327,2.896,7.627,5.239l1.856,1.989l-3.846,3.78l-1.924-1.923c-1.769-1.768-3.758-3.117-5.969-4.045
		c-2.211-0.928-4.554-1.393-7.029-1.393c-2.52,0-4.886,0.476-7.096,1.426c-2.212,0.951-4.146,2.233-5.803,3.847
		c-1.658,1.614-2.963,3.515-3.913,5.703c-0.951,2.188-1.426,4.521-1.426,6.997c0,2.477,0.475,4.819,1.426,7.03
		c0.95,2.211,2.255,4.134,3.913,5.77c1.657,1.636,3.591,2.929,5.803,3.879c2.21,0.951,4.576,1.426,7.096,1.426
		c2.21,0,4.299-0.365,6.267-1.094c1.967-0.729,3.791-1.801,5.472-3.216v-8.621h-16.845v-5.504h22.349v16.447l-0.796,0.862
		c-2.254,2.167-4.786,3.813-7.593,4.941C550.109,70.229,547.158,70.792,544.064,70.792z"/>
	<path fill="#FFFFFF" d="M602.49,50.631h-23.94v14.656h25.466v5.504h-30.971V23.64h30.971v5.504H578.55v15.982h23.94V50.631z"/>
	<path fill="#FFFFFF" d="M617.278,78.949l-5.239-1.658l4.775-15.717l5.305,1.459L617.278,78.949z"/>
	<path fill="#FFFFFF" d="M73.614,142.439c-5.836,0-10.279-1.702-13.33-5.106c-1.194-1.237-2.089-2.575-2.686-4.012
		c-0.597-1.436-1.028-2.774-1.293-4.012c-0.265-1.237-0.409-2.298-0.431-3.183c-0.023-0.884-0.033-1.437-0.033-1.658V95.221h5.504
		V124.6c0,1.238,0.077,2.311,0.232,3.216c0.154,0.907,0.441,1.88,0.862,2.918c0.42,1.039,1.028,1.979,1.824,2.818
		c2.166,2.255,5.283,3.382,9.351,3.382c4.245,0,7.339-1.083,9.285-3.25c0.619-0.707,1.094-1.469,1.426-2.288
		c0.332-0.817,0.564-1.602,0.696-2.354c0.133-0.751,0.199-1.426,0.199-2.023s0-1.005,0-1.227V95.022h5.438v30.506
		c0,0.398-0.012,1.028-0.033,1.89c-0.023,0.862-0.144,1.835-0.365,2.918c-0.222,1.084-0.586,2.233-1.094,3.449
		c-0.509,1.216-1.227,2.377-2.155,3.481c-1.504,1.592-3.394,2.852-5.67,3.78C79.063,141.975,76.488,142.439,73.614,142.439z"/>
	<path fill="#FFFFFF" d="M141.258,144.76l-30.572-36.408v34.021h-5.504V93.166l30.572,36.408V95.221h5.504V144.76z"/>
	<path fill="#FFFFFF" d="M161.484,142.373h-5.504V94.956h5.504V142.373z"/>
	<path fill="#FFFFFF" d="M214.472,147.413l-7.163-8.489l-3.183,1.592c-2.875,1.238-5.925,1.857-9.152,1.857
		c-3.316,0-6.411-0.619-9.285-1.857c-1.415-0.619-2.752-1.359-4.012-2.222c-1.26-0.862-2.399-1.801-3.416-2.818v0.066
		c-1.105-1.061-2.056-2.222-2.852-3.482c-0.796-1.26-1.504-2.597-2.122-4.012c-1.283-3.094-1.923-6.189-1.923-9.284v-2.719h5.504
		v2.719c0,2.52,0.475,4.874,1.426,7.062c0.95,2.188,2.243,4.102,3.879,5.737c1.635,1.636,3.559,2.929,5.77,3.879
		c2.21,0.951,4.553,1.426,7.03,1.426c1.502,0,3.006-0.209,4.51-0.63c1.502-0.42,2.895-0.962,4.178-1.625l-26.66-31.434l1.99-1.725
		h-0.066c2.21-2.078,4.675-3.636,7.395-4.675c2.719-1.038,5.604-1.559,8.654-1.559c3.006,0,6.057,0.62,9.152,1.857
		c1.415,0.62,2.741,1.349,3.979,2.188c1.237,0.84,2.387,1.791,3.449,2.852c2.122,2.167,3.823,4.665,5.106,7.494
		c1.193,2.918,1.791,5.969,1.791,9.152c0,3.272-0.597,6.366-1.791,9.284c-0.664,1.416-1.404,2.752-2.222,4.012
		c-0.819,1.26-1.78,2.421-2.885,3.482l7.029,8.157L214.472,147.413z M208.105,131.232c1.547-1.592,2.741-3.459,3.581-5.604
		c0.839-2.144,1.26-4.432,1.26-6.864c0-2.476-0.476-4.808-1.426-6.997c-0.952-2.188-2.233-4.1-3.847-5.736
		c-1.614-1.635-3.515-2.928-5.703-3.88c-2.188-0.95-4.521-1.426-6.997-1.426c-3.891,0-7.295,1.04-10.213,3.117L208.105,131.232z"/>
	<path fill="#FFFFFF" d="M246.701,142.439c-5.836,0-10.279-1.702-13.33-5.106c-1.194-1.237-2.089-2.575-2.686-4.012
		c-0.597-1.436-1.028-2.774-1.293-4.012c-0.265-1.237-0.409-2.298-0.431-3.183c-0.023-0.884-0.033-1.437-0.033-1.658V95.221h5.504
		V124.6c0,1.238,0.077,2.311,0.232,3.216c0.154,0.907,0.441,1.88,0.862,2.918c0.42,1.039,1.028,1.979,1.824,2.818
		c2.166,2.255,5.283,3.382,9.351,3.382c4.245,0,7.339-1.083,9.285-3.25c0.619-0.707,1.094-1.469,1.426-2.288
		c0.332-0.817,0.564-1.602,0.696-2.354c0.133-0.751,0.199-1.426,0.199-2.023s0-1.005,0-1.227V95.022h5.438v30.506
		c0,0.398-0.012,1.028-0.033,1.89c-0.023,0.862-0.144,1.835-0.365,2.918c-0.222,1.084-0.586,2.233-1.094,3.449
		c-0.509,1.216-1.227,2.377-2.155,3.481c-1.504,1.592-3.394,2.852-5.67,3.78C252.149,141.975,249.574,142.439,246.701,142.439z"/>
	<path fill="#FFFFFF" d="M303.999,122.212h-23.94v14.656h25.466v5.504h-30.97V95.221h30.97v5.504h-25.466v15.982h23.94V122.212z"/>
	<path fill="#FFFFFF" d="M355.394,142.373c-3.095,0-6.167-0.64-9.218-1.923c-2.875-1.193-5.395-2.852-7.561-4.974
		c-2.167-2.166-3.847-4.664-5.04-7.494c-1.283-3.094-1.923-6.167-1.923-9.218c0-3.051,0.64-6.101,1.923-9.152
		c0.618-1.415,1.337-2.763,2.155-4.045c0.817-1.282,1.779-2.431,2.885-3.449v0.066c1.149-1.149,2.343-2.132,3.581-2.951
		c1.237-0.817,2.563-1.536,3.979-2.155v0.066c3.094-1.237,6.167-1.857,9.218-1.857c3.184,0,6.3,0.642,9.351,1.923l-0.066-0.066
		c2.785,1.15,5.327,2.896,7.627,5.239l1.856,1.989l-3.846,3.78l-1.924-1.923c-1.769-1.768-3.758-3.117-5.969-4.045
		c-2.211-0.928-4.554-1.393-7.029-1.393c-2.52,0-4.886,0.476-7.096,1.426c-2.212,0.951-4.146,2.233-5.803,3.847
		c-1.658,1.614-2.963,3.515-3.913,5.703c-0.951,2.188-1.426,4.521-1.426,6.997c0,2.477,0.475,4.819,1.426,7.03
		c0.95,2.211,2.255,4.134,3.913,5.77c1.657,1.636,3.591,2.929,5.803,3.879c2.21,0.951,4.576,1.426,7.096,1.426
		c2.21,0,4.299-0.365,6.267-1.094c1.967-0.729,3.791-1.801,5.472-3.216v-8.621h-16.845v-5.504h22.349v16.447l-0.796,0.862
		c-2.254,2.167-4.786,3.813-7.593,4.941C361.438,141.81,358.487,142.373,355.394,142.373z"/>
	<path fill="#FFFFFF" d="M386.695,98.604l4.111-3.714l3.316,3.847c1.326-0.839,2.674-1.569,4.045-2.188
		c3.006-1.237,6.078-1.857,9.219-1.857c3.183,0,6.277,0.62,9.284,1.857c1.37,0.62,2.719,1.382,4.045,2.288
		c1.326,0.907,2.497,1.869,3.515,2.885c1.017,1.018,1.967,2.178,2.852,3.481c0.885,1.305,1.636,2.643,2.255,4.012
		c0.619,1.503,1.095,3.018,1.426,4.543c0.332,1.525,0.498,3.106,0.498,4.742c0,1.636-0.166,3.216-0.498,4.742
		c-0.331,1.525-0.807,3.04-1.426,4.542c-0.575,1.238-1.216,2.41-1.923,3.515c-0.708,1.106-1.504,2.167-2.388,3.184l3.316,3.78
		l-4.112,3.647l-3.315-3.78c-1.415,0.928-2.83,1.681-4.244,2.254c-1.416,0.62-2.918,1.094-4.51,1.426
		c-1.592,0.332-3.184,0.497-4.774,0.497c-3.184,0-6.257-0.64-9.219-1.923v0.066c-1.415-0.574-2.752-1.293-4.012-2.155
		c-1.261-0.862-2.466-1.845-3.614-2.951c-1.062-1.149-2.023-2.343-2.885-3.581c-0.862-1.237-1.604-2.563-2.222-3.979h0.066
		c-1.283-3.051-1.924-6.145-1.924-9.284c0-1.547,0.177-3.127,0.53-4.742c0.354-1.614,0.818-3.127,1.394-4.543
		c0.53-1.282,1.182-2.497,1.956-3.647c0.772-1.149,1.602-2.21,2.486-3.183L386.695,98.604z M389.149,118.499
		c0,2.52,0.475,4.885,1.426,7.096c0.95,2.211,2.254,4.145,3.912,5.803c1.658,1.658,3.592,2.962,5.803,3.913
		c2.211,0.952,4.576,1.426,7.097,1.426c1.812,0,3.548-0.253,5.205-0.762c1.658-0.508,3.194-1.204,4.609-2.089l-23.675-27.323
		c-1.371,1.592-2.443,3.405-3.217,5.438C389.535,114.034,389.149,116.201,389.149,118.499z M407.387,100.195
		c-1.77,0-3.46,0.243-5.074,0.729c-1.614,0.487-3.128,1.172-4.542,2.056l23.608,27.256c1.326-1.591,2.376-3.382,3.15-5.372
		c0.773-1.989,1.16-4.112,1.16-6.366c0-2.521-0.486-4.885-1.459-7.096c-0.973-2.21-2.287-4.145-3.945-5.803
		c-1.658-1.658-3.593-2.973-5.803-3.946C412.271,100.682,409.906,100.195,407.387,100.195z"/>
	<path fill="#FFFFFF" d="M462.43,142.307c-3.008,0-6.058-0.619-9.152-1.857c-2.874-1.282-5.395-2.939-7.56-4.974
		c-1.018-1.061-1.946-2.21-2.786-3.449c-0.84-1.237-1.569-2.608-2.188-4.111c-1.238-3.094-1.856-6.167-1.856-9.218
		c0-1.547,0.154-3.084,0.464-4.609c0.31-1.525,0.773-3.061,1.393-4.609c0.619-1.414,1.337-2.741,2.155-3.979
		c0.818-1.237,1.779-2.387,2.886-3.448c2.165-2.166,4.663-3.847,7.493-5.041c3.051-1.282,6.102-1.923,9.152-1.923
		c3.094,0,6.167,0.641,9.218,1.923c1.414,0.62,2.774,1.35,4.078,2.188c1.304,0.841,2.465,1.769,3.482,2.786
		c1.017,1.018,1.944,2.178,2.785,3.481c0.839,1.305,1.568,2.643,2.188,4.012c1.281,3.095,1.923,6.167,1.923,9.218
		c0,3.095-0.642,6.167-1.923,9.218c-1.194,2.83-2.875,5.328-5.04,7.494c-1.105,1.061-2.277,2.012-3.515,2.852
		c-1.238,0.84-2.565,1.57-3.979,2.188C468.553,141.688,465.48,142.307,462.43,142.307z M462.43,100.593
		c-2.477,0-4.809,0.476-6.997,1.426c-2.188,0.951-4.111,2.244-5.77,3.879c-1.658,1.636-2.962,3.548-3.912,5.736
		c-0.951,2.188-1.426,4.543-1.426,7.063c0,2.477,0.475,4.819,1.426,7.03c0.95,2.211,2.254,4.134,3.912,5.77
		c1.658,1.636,3.581,2.929,5.77,3.879c2.188,0.951,4.521,1.426,6.997,1.426c2.52,0,4.874-0.475,7.062-1.426
		c2.188-0.95,4.111-2.243,5.77-3.879c1.658-1.635,2.962-3.559,3.913-5.77c0.95-2.21,1.426-4.553,1.426-7.03
		c0-2.52-0.476-4.875-1.426-7.063c-0.951-2.188-2.255-4.1-3.913-5.736c-1.658-1.635-3.581-2.928-5.77-3.879
		C467.304,101.069,464.949,100.593,462.43,100.593z"/>
	<path fill="#FFFFFF" d="M495.057,142.24V95.221h17.375c0.043,0,0.397,0.023,1.061,0.066c0.663,0.044,1.503,0.156,2.521,0.332
		c1.017,0.177,2.177,0.464,3.481,0.862c1.304,0.398,2.597,0.951,3.88,1.658c3.139,1.769,5.637,4.178,7.493,7.229
		c1.017,1.769,1.846,3.813,2.487,6.134c0.641,2.321,0.962,4.72,0.962,7.195c0,5.35-1.172,9.859-3.515,13.529v-0.066
		c-1.901,3.095-4.488,5.504-7.76,7.229c-1.371,0.708-2.697,1.26-3.979,1.658c-1.283,0.398-2.433,0.686-3.449,0.862
		c-1.018,0.177-1.856,0.277-2.52,0.298c-0.663,0.023-1.018,0.033-1.062,0.033H495.057z M500.561,136.736h11.473
		c0.044,0,0.32-0.01,0.829-0.033c0.508-0.022,1.161-0.1,1.957-0.232c0.795-0.132,1.69-0.353,2.686-0.663
		c0.994-0.309,2-0.751,3.018-1.326c5.525-3.051,8.289-8.312,8.289-15.784c0-7.383-2.697-12.6-8.091-15.651
		c-0.885-0.531-1.757-0.939-2.619-1.227c-0.862-0.287-1.658-0.508-2.388-0.663c-0.729-0.154-1.371-0.265-1.923-0.332
		c-0.554-0.066-0.939-0.1-1.16-0.1h-12.07V136.736z"/>
	<path fill="#FFFFFF" d="M558.189,142.506c-3.315,0-6.134-0.453-8.455-1.36c-2.321-0.905-4.234-1.912-5.736-3.017
		c-1.504-1.105-2.609-2.144-3.316-3.117c-0.707-0.972-1.083-1.502-1.127-1.591l4.841-2.321c0.221,0.31,0.619,0.796,1.194,1.459
		c0.574,0.663,1.237,1.238,1.989,1.724c1.37,0.885,2.951,1.559,4.741,2.023c1.791,0.464,3.747,0.696,5.869,0.696
		c1.327,0,2.597-0.199,3.813-0.597c1.216-0.398,2.332-0.972,3.35-1.724c0.884-0.663,1.591-1.415,2.122-2.255
		c0.53-0.839,0.839-1.658,0.928-2.454c0.266-1.99-0.63-3.824-2.686-5.504c-2.056-1.68-4.963-3.028-8.721-4.045
		c-2.52-0.619-4.753-1.393-6.698-2.321c-1.945-0.929-3.56-1.967-4.841-3.117c-1.548-1.502-2.51-3.006-2.885-4.509
		c-0.376-1.503-0.521-2.763-0.432-3.78c0.089-0.839,0.31-1.658,0.664-2.454c0.353-0.796,0.795-1.569,1.326-2.321l-0.066,0.066
		c0.884-1.415,2.122-2.63,3.714-3.647c1.547-1.017,3.205-1.812,4.974-2.388c1.768-0.574,3.581-0.862,5.438-0.862
		c2.521,0,4.742,0.343,6.665,1.028c1.924,0.686,3.548,1.459,4.875,2.321c1.326,0.862,2.343,1.658,3.05,2.387
		s1.105,1.117,1.194,1.161l-3.78,2.984c-0.177,0-0.354-0.022-0.53-0.066c-0.178-0.043-0.354-0.088-0.531-0.133
		c-0.177-0.043-0.31-0.132-0.397-0.265c-0.133-0.133-0.388-0.365-0.763-0.696c-0.376-0.332-0.939-0.74-1.691-1.227h0.066
		c-2.255-1.326-4.974-1.989-8.157-1.989c-1.238,0-2.453,0.188-3.647,0.563c-1.193,0.376-2.277,0.885-3.249,1.525
		c-0.973,0.642-1.791,1.359-2.454,2.155s-1.061,1.614-1.193,2.454c-0.133,1.371,0.42,2.586,1.658,3.647
		c1.812,1.769,4.818,3.184,9.019,4.245c2.653,0.663,5.029,1.525,7.129,2.586c2.1,1.061,3.791,2.254,5.074,3.581
		c2.695,2.83,3.823,5.925,3.382,9.284c-0.222,1.592-0.774,3.117-1.658,4.576c-0.885,1.459-2.078,2.742-3.581,3.846
		c-1.459,1.105-3.073,1.957-4.841,2.553C562.058,142.207,560.18,142.506,558.189,142.506z"/>
	<path fill="#FFFFFF" d="M585.314,142.705c-1.15,0-2.122-0.398-2.918-1.194c-0.796-0.795-1.194-1.768-1.194-2.918
		c0-1.149,0.398-2.122,1.194-2.918c0.796-0.795,1.768-1.193,2.918-1.193c1.149,0,2.11,0.398,2.885,1.193
		c0.772,0.796,1.16,1.769,1.16,2.918c0,1.15-0.388,2.123-1.16,2.918C587.425,142.307,586.464,142.705,585.314,142.705z"/>
</g>
</svg>
