<?xml version="1.0" encoding="utf-8"?>
<!-- Generator: Adobe Illustrator 16.0.0, SVG Export Plug-In . SVG Version: 6.00 Build 0)  -->
<!DOCTYPE svg PUBLIC "-//W3C//DTD SVG 1.1//EN" "http://www.w3.org/Graphics/SVG/1.1/DTD/svg11.dtd">
<svg version="1.1" id="Layer_1" xmlns="http://www.w3.org/2000/svg" xmlns:xlink="http://www.w3.org/1999/xlink" x="0px" y="0px"
	 width="640.333px" height="176.333px" viewBox="0 0 640.333 176.333" enable-background="new 0 0 640.333 176.333"
	 xml:space="preserve">
<g>
	<path fill="#FFFFFF" d="M63.733,75.832l-7.163-8.489l-3.183,1.592c-2.875,1.238-5.925,1.857-9.152,1.857
		c-3.316,0-6.411-0.619-9.285-1.857c-1.415-0.619-2.752-1.359-4.012-2.222c-1.26-0.862-2.399-1.801-3.416-2.818v0.066
		c-1.105-1.061-2.056-2.222-2.852-3.482s-1.504-2.597-2.122-4.012c-1.283-3.094-1.923-6.189-1.923-9.284v-2.719h5.504v2.719
		c0,2.52,0.475,4.874,1.426,7.062c0.95,2.188,2.243,4.102,3.879,5.737c1.635,1.636,3.559,2.929,5.77,3.879
		c2.21,0.951,4.553,1.426,7.03,1.426c1.502,0,3.006-0.209,4.51-0.63c1.502-0.42,2.895-0.962,4.178-1.625l-26.66-31.434l1.99-1.725
		h-0.066c2.21-2.078,4.675-3.636,7.395-4.675c2.719-1.038,5.604-1.559,8.654-1.559c3.006,0,6.057,0.62,9.152,1.857
		c1.415,0.62,2.741,1.349,3.979,2.188c1.237,0.84,2.387,1.791,3.449,2.852c2.122,2.167,3.823,4.665,5.106,7.494
		c1.193,2.918,1.791,5.969,1.791,9.152c0,3.272-0.597,6.366-1.791,9.284c-0.664,1.416-1.404,2.752-2.222,4.012
		c-0.819,1.26-1.78,2.421-2.885,3.482l7.029,8.157L63.733,75.832z M57.367,59.651c1.547-1.592,2.741-3.459,3.581-5.604
		c0.839-2.144,1.26-4.432,1.26-6.864c0-2.476-0.476-4.808-1.426-6.997c-0.952-2.188-2.233-4.1-3.847-5.736
		c-1.614-1.635-3.515-2.928-5.703-3.88c-2.188-0.95-4.521-1.426-6.997-1.426c-3.891,0-7.295,1.04-10.213,3.117L57.367,59.651z"/>
	<path fill="#FFFFFF" d="M95.962,70.858c-5.836,0-10.279-1.702-13.33-5.106c-1.194-1.237-2.089-2.575-2.686-4.012
		c-0.597-1.436-1.028-2.774-1.293-4.012c-0.265-1.237-0.409-2.298-0.431-3.183c-0.023-0.884-0.033-1.437-0.033-1.658V23.64h5.504
		v29.379c0,1.238,0.077,2.311,0.232,3.216c0.154,0.907,0.441,1.88,0.862,2.918c0.42,1.039,1.028,1.979,1.824,2.818
		c2.166,2.255,5.283,3.382,9.351,3.382c4.245,0,7.339-1.083,9.285-3.25c0.619-0.707,1.094-1.469,1.426-2.288
		c0.332-0.817,0.564-1.602,0.696-2.354c0.133-0.751,0.199-1.426,0.199-2.023s0-1.005,0-1.227v-30.77h5.438v30.506
		c0,0.397-0.012,1.028-0.033,1.89c-0.023,0.862-0.144,1.835-0.365,2.918c-0.222,1.084-0.586,2.233-1.094,3.449
		c-0.509,1.216-1.227,2.377-2.155,3.481c-1.504,1.592-3.394,2.852-5.67,3.78C101.411,70.394,98.836,70.858,95.962,70.858z"/>
	<path fill="#FFFFFF" d="M157.041,71.19l-15.187-35.48l-15.121,35.48l-5.04-2.122l20.161-47.285l20.16,47.218L157.041,71.19z"/>
	<path fill="#FFFFFF" d="M199.351,70.792h-28.317V23.574h5.504v41.713h22.813V70.792z"/>
	<path fill="#FFFFFF" d="M212.149,70.792h-5.504V23.375h5.504V70.792z"/>
	<path fill="#FFFFFF" d="M234.366,70.792V29.078H218.45v-5.504h37.734v5.504H239.87v41.714H234.366z"/>
	<path fill="#FFFFFF" d="M283.308,70.858h-5.438V51.494c-2.785-4.112-5.648-8.333-8.588-12.667
		c-2.941-4.333-5.803-8.555-8.588-12.667l4.576-3.05l15.385,22.614l15.452-22.681l4.51,3.183L283.308,51.56V70.858z"/>
	<path fill="#FFFFFF" d="M344.651,72.715l-20.691-47.284L329,23.243l15.717,35.944l15.851-35.944l4.974,2.188L344.651,72.715z"/>
	<path fill="#FFFFFF" d="M378.006,70.792h-5.504V23.375h5.504V70.792z"/>
	<path fill="#FFFFFF" d="M409.973,51.295l-17.707,21.619V20.722l29.844,36.74V23.176h5.568v49.937L409.973,51.295z M397.836,57.33
		c1.414-1.724,2.828-3.416,4.244-5.073c1.414-1.658,2.852-3.416,4.311-5.272c-0.84-1.016-1.592-1.934-2.254-2.752
		c-0.664-0.817-1.305-1.613-1.924-2.388c-0.619-0.773-1.283-1.58-1.99-2.42c-0.707-0.839-1.504-1.812-2.387-2.918V57.33
		L397.836,57.33z"/>
	<path fill="#FFFFFF" d="M453.012,70.792V29.078h-15.916v-5.504h37.734v5.504h-16.314v41.714H453.012z"/>
	<path fill="#FFFFFF" d="M510.641,71.19l-15.188-35.48l-15.119,35.48l-5.041-2.122l20.16-47.285l20.162,47.218L510.641,71.19z"/>
	<path fill="#FFFFFF" d="M544.065,70.792c-3.096,0-6.168-0.64-9.219-1.923c-2.875-1.193-5.395-2.852-7.561-4.974
		c-2.168-2.166-3.848-4.664-5.041-7.494c-1.283-3.094-1.922-6.167-1.922-9.218c0-3.051,0.639-6.101,1.922-9.152
		c0.619-1.415,1.338-2.763,2.156-4.045c0.816-1.282,1.777-2.431,2.885-3.449v0.066c1.148-1.149,2.342-2.132,3.58-2.951
		c1.238-0.817,2.562-1.536,3.979-2.155v0.066c3.096-1.237,6.168-1.857,9.219-1.857c3.184,0,6.301,0.642,9.352,1.923l-0.066-0.066
		c2.785,1.15,5.326,2.896,7.627,5.239l1.855,1.989l-3.846,3.78l-1.924-1.923c-1.77-1.768-3.758-3.117-5.969-4.045
		s-4.555-1.393-7.029-1.393c-2.52,0-4.887,0.476-7.096,1.426c-2.213,0.951-4.146,2.233-5.803,3.847
		c-1.658,1.614-2.963,3.515-3.914,5.703s-1.426,4.521-1.426,6.997c0,2.477,0.475,4.819,1.426,7.03s2.256,4.134,3.914,5.77
		c1.656,1.636,3.59,2.929,5.803,3.879c2.209,0.951,4.576,1.426,7.096,1.426c2.211,0,4.299-0.365,6.268-1.094
		c1.967-0.729,3.791-1.801,5.471-3.216v-8.621h-16.844v-5.504h22.35V63.3l-0.797,0.862c-2.254,2.167-4.785,3.813-7.594,4.941
		C550.11,70.229,547.159,70.792,544.065,70.792z"/>
	<path fill="#FFFFFF" d="M602.491,50.631h-23.941v14.656h25.467v5.504h-30.971V23.64h30.971v5.504h-25.467v15.982h23.941V50.631z"/>
	<path fill="#FFFFFF" d="M73.614,142.439c-5.836,0-10.279-1.702-13.33-5.106c-1.194-1.236-2.089-2.574-2.686-4.012
		c-0.597-1.436-1.028-2.773-1.293-4.012c-0.265-1.236-0.409-2.298-0.431-3.184c-0.023-0.883-0.033-1.437-0.033-1.658V95.221h5.504
		V124.6c0,1.238,0.077,2.311,0.232,3.216c0.154,0.907,0.441,1.88,0.862,2.918c0.42,1.039,1.028,1.979,1.824,2.817
		c2.166,2.256,5.283,3.383,9.351,3.383c4.245,0,7.339-1.083,9.285-3.25c0.619-0.707,1.094-1.469,1.426-2.288
		c0.332-0.817,0.564-1.603,0.696-2.354c0.133-0.75,0.199-1.426,0.199-2.022s0-1.005,0-1.228v-30.77h5.438v30.506
		c0,0.398-0.012,1.028-0.033,1.891c-0.023,0.861-0.144,1.834-0.365,2.918c-0.222,1.084-0.586,2.232-1.094,3.449
		c-0.509,1.215-1.227,2.377-2.155,3.48c-1.504,1.592-3.394,2.852-5.67,3.779C79.063,141.975,76.488,142.439,73.614,142.439z"/>
	<path fill="#FFFFFF" d="M141.258,144.76l-30.572-36.408v34.021h-5.504V93.167l30.572,36.408V95.221h5.504V144.76z"/>
	<path fill="#FFFFFF" d="M161.484,142.374h-5.504V94.956h5.504V142.374z"/>
	<path fill="#FFFFFF" d="M214.472,147.413l-7.163-8.488l-3.183,1.592c-2.875,1.238-5.925,1.857-9.152,1.857
		c-3.316,0-6.411-0.619-9.285-1.857c-1.415-0.619-2.752-1.359-4.012-2.223c-1.26-0.861-2.399-1.801-3.416-2.817v0.065
		c-1.105-1.061-2.056-2.222-2.852-3.481c-0.796-1.261-1.504-2.597-2.122-4.013c-1.283-3.094-1.923-6.188-1.923-9.283v-2.719h5.504
		v2.719c0,2.52,0.475,4.874,1.426,7.062c0.95,2.188,2.243,4.102,3.879,5.736c1.635,1.637,3.559,2.93,5.77,3.879
		c2.21,0.951,4.553,1.426,7.03,1.426c1.502,0,3.006-0.209,4.51-0.63c1.502-0.42,2.895-0.962,4.178-1.625l-26.66-31.434l1.99-1.726
		h-0.066c2.21-2.078,4.675-3.636,7.395-4.675c2.719-1.038,5.604-1.56,8.654-1.56c3.006,0,6.057,0.621,9.152,1.857
		c1.415,0.621,2.741,1.35,3.979,2.188c1.237,0.84,2.387,1.791,3.449,2.853c2.122,2.166,3.823,4.664,5.106,7.493
		c1.193,2.918,1.791,5.97,1.791,9.152c0,3.272-0.597,6.366-1.791,9.284c-0.664,1.416-1.404,2.752-2.222,4.012
		c-0.819,1.26-1.78,2.421-2.885,3.482l7.029,8.156L214.472,147.413z M208.105,131.232c1.547-1.592,2.741-3.459,3.581-5.604
		c0.839-2.144,1.26-4.432,1.26-6.863c0-2.477-0.476-4.809-1.426-6.997c-0.952-2.188-2.233-4.101-3.847-5.735
		c-1.614-1.636-3.515-2.929-5.703-3.881c-2.188-0.949-4.521-1.426-6.997-1.426c-3.891,0-7.295,1.04-10.213,3.117L208.105,131.232z"
		/>
	<path fill="#FFFFFF" d="M246.701,142.439c-5.836,0-10.279-1.702-13.33-5.106c-1.194-1.236-2.089-2.574-2.686-4.012
		c-0.597-1.436-1.028-2.773-1.293-4.012c-0.265-1.236-0.409-2.298-0.431-3.184c-0.023-0.883-0.033-1.437-0.033-1.658V95.221h5.504
		V124.6c0,1.238,0.077,2.311,0.232,3.216c0.154,0.907,0.441,1.88,0.862,2.918c0.42,1.039,1.028,1.979,1.824,2.817
		c2.166,2.256,5.283,3.383,9.351,3.383c4.245,0,7.339-1.083,9.285-3.25c0.619-0.707,1.094-1.469,1.426-2.288
		c0.332-0.817,0.564-1.603,0.696-2.354c0.133-0.75,0.199-1.426,0.199-2.022s0-1.005,0-1.228v-30.77h5.438v30.506
		c0,0.398-0.012,1.028-0.033,1.891c-0.023,0.861-0.144,1.834-0.365,2.918c-0.222,1.084-0.586,2.232-1.094,3.449
		c-0.509,1.215-1.227,2.377-2.155,3.48c-1.504,1.592-3.394,2.852-5.67,3.779C252.149,141.975,249.574,142.439,246.701,142.439z"/>
	<path fill="#FFFFFF" d="M303.999,122.211h-23.94v14.656h25.466v5.504h-30.97v-47.15h30.97v5.504h-25.466v15.982h23.94V122.211z"/>
	<path fill="#FFFFFF" d="M355.394,142.374c-3.095,0-6.167-0.641-9.218-1.924c-2.875-1.193-5.395-2.852-7.561-4.974
		c-2.168-2.166-3.848-4.664-5.041-7.494c-1.283-3.094-1.923-6.167-1.923-9.218s0.64-6.102,1.923-9.152
		c0.618-1.415,1.338-2.763,2.155-4.045c0.817-1.281,1.778-2.432,2.886-3.449v0.066c1.148-1.148,2.342-2.133,3.58-2.951
		c1.237-0.816,2.562-1.535,3.979-2.154v0.065c3.095-1.237,6.168-1.856,9.219-1.856c3.184,0,6.3,0.642,9.352,1.922l-0.066-0.065
		c2.785,1.149,5.326,2.896,7.627,5.239l1.855,1.988l-3.846,3.78l-1.924-1.923c-1.77-1.768-3.758-3.117-5.969-4.045
		s-4.555-1.393-7.029-1.393c-2.52,0-4.887,0.476-7.096,1.426c-2.213,0.951-4.146,2.232-5.803,3.847
		c-1.658,1.614-2.964,3.515-3.914,5.703c-0.951,2.188-1.426,4.521-1.426,6.997s0.475,4.818,1.426,7.029s2.256,4.135,3.914,5.771
		c1.656,1.636,3.59,2.929,5.803,3.879c2.209,0.951,4.576,1.427,7.096,1.427c2.21,0,4.299-0.365,6.268-1.095
		c1.967-0.729,3.791-1.801,5.471-3.216v-8.621h-16.844v-5.504h22.349v16.447l-0.796,0.861c-2.254,2.168-4.786,3.813-7.594,4.941
		C361.438,141.81,358.487,142.374,355.394,142.374z"/>
	<path fill="#FFFFFF" d="M386.695,98.604l4.111-3.714l3.315,3.847c1.326-0.839,2.674-1.568,4.045-2.188
		c3.006-1.237,6.078-1.857,9.219-1.857c3.184,0,6.277,0.62,9.285,1.857c1.369,0.619,2.719,1.382,4.045,2.287
		c1.326,0.908,2.496,1.869,3.516,2.886c1.016,1.019,1.967,2.178,2.852,3.481c0.885,1.305,1.635,2.643,2.254,4.012
		c0.619,1.502,1.096,3.018,1.426,4.543c0.332,1.525,0.498,3.105,0.498,4.742c0,1.635-0.166,3.215-0.498,4.742
		c-0.33,1.524-0.807,3.039-1.426,4.541c-0.574,1.238-1.215,2.41-1.922,3.516c-0.709,1.105-1.504,2.166-2.389,3.184l3.316,3.78
		l-4.111,3.647l-3.316-3.781c-1.414,0.929-2.83,1.682-4.244,2.254c-1.416,0.621-2.918,1.095-4.51,1.427s-3.184,0.497-4.773,0.497
		c-3.184,0-6.258-0.641-9.219-1.924v0.066c-1.416-0.574-2.752-1.293-4.012-2.154c-1.262-0.862-2.467-1.846-3.615-2.951
		c-1.062-1.149-2.022-2.344-2.885-3.581c-0.861-1.237-1.604-2.563-2.222-3.979h0.065c-1.282-3.051-1.924-6.145-1.924-9.283
		c0-1.547,0.178-3.127,0.53-4.742c0.354-1.614,0.817-3.127,1.394-4.543c0.531-1.282,1.183-2.498,1.957-3.647
		c0.771-1.149,1.602-2.21,2.485-3.183L386.695,98.604z M389.149,118.499c0,2.521,0.475,4.885,1.426,7.097
		c0.95,2.211,2.254,4.146,3.912,5.803c1.658,1.658,3.592,2.962,5.803,3.913c2.211,0.952,4.576,1.426,7.098,1.426
		c1.812,0,3.547-0.253,5.205-0.762c1.658-0.508,3.193-1.204,4.609-2.09l-23.676-27.322c-1.371,1.592-2.443,3.404-3.217,5.438
		S389.149,116.202,389.149,118.499z M407.387,100.195c-1.77,0-3.461,0.243-5.074,0.729s-3.129,1.172-4.541,2.056l23.607,27.256
		c1.326-1.591,2.375-3.382,3.15-5.372c0.771-1.988,1.16-4.111,1.16-6.365c0-2.521-0.486-4.886-1.459-7.097
		c-0.975-2.21-2.287-4.146-3.945-5.803c-1.658-1.658-3.594-2.974-5.803-3.946C412.272,100.682,409.907,100.195,407.387,100.195z"/>
	<path fill="#FFFFFF" d="M462.43,142.307c-3.008,0-6.059-0.619-9.152-1.857c-2.873-1.281-5.395-2.938-7.561-4.974
		c-1.018-1.062-1.945-2.21-2.785-3.449c-0.84-1.237-1.568-2.608-2.188-4.11c-1.238-3.094-1.857-6.168-1.857-9.219
		c0-1.547,0.154-3.084,0.465-4.609c0.311-1.524,0.773-3.061,1.393-4.608c0.619-1.414,1.338-2.741,2.156-3.979
		c0.816-1.236,1.777-2.387,2.885-3.447c2.166-2.166,4.664-3.848,7.494-5.041c3.051-1.282,6.102-1.924,9.15-1.924
		c3.096,0,6.168,0.642,9.219,1.924c1.414,0.619,2.773,1.35,4.078,2.188c1.305,0.842,2.465,1.77,3.482,2.786
		c1.016,1.019,1.943,2.179,2.785,3.481c0.838,1.305,1.566,2.643,2.188,4.012c1.281,3.096,1.924,6.167,1.924,9.219
		c0,3.094-0.643,6.166-1.924,9.217c-1.193,2.83-2.875,5.328-5.041,7.494c-1.104,1.062-2.275,2.012-3.514,2.853
		c-1.238,0.84-2.566,1.569-3.979,2.188C468.553,141.688,465.481,142.307,462.43,142.307z M462.43,100.592
		c-2.477,0-4.809,0.477-6.998,1.427c-2.188,0.951-4.109,2.244-5.77,3.879c-1.658,1.636-2.961,3.548-3.912,5.735
		c-0.951,2.189-1.426,4.543-1.426,7.064c0,2.477,0.475,4.818,1.426,7.029s2.254,4.134,3.912,5.77c1.658,1.637,3.582,2.93,5.77,3.879
		c2.189,0.951,4.521,1.426,6.998,1.426c2.52,0,4.873-0.475,7.062-1.426c2.188-0.949,4.109-2.242,5.77-3.879
		c1.658-1.635,2.961-3.559,3.912-5.77c0.951-2.21,1.426-4.553,1.426-7.029c0-2.521-0.475-4.875-1.426-7.064
		c-0.951-2.188-2.254-4.1-3.912-5.735c-1.658-1.635-3.582-2.928-5.77-3.879C467.303,101.069,464.95,100.592,462.43,100.592z"/>
	<path fill="#FFFFFF" d="M495.057,142.241v-47.02h17.375c0.043,0,0.396,0.023,1.061,0.066s1.504,0.155,2.521,0.332
		c1.018,0.176,2.178,0.463,3.48,0.861c1.305,0.398,2.598,0.951,3.881,1.658c3.139,1.77,5.637,4.178,7.492,7.229
		c1.018,1.77,1.846,3.813,2.488,6.135c0.641,2.32,0.961,4.72,0.961,7.194c0,5.351-1.172,9.859-3.516,13.529v-0.065
		c-1.9,3.094-4.486,5.504-7.76,7.229c-1.371,0.708-2.697,1.26-3.979,1.658c-1.283,0.397-2.434,0.686-3.449,0.861
		c-1.018,0.178-1.855,0.277-2.52,0.299c-0.664,0.022-1.018,0.033-1.062,0.033H495.057L495.057,142.241z M500.561,136.736h11.473
		c0.045,0,0.32-0.01,0.83-0.032c0.508-0.022,1.16-0.101,1.957-0.232c0.795-0.133,1.689-0.354,2.686-0.663
		c0.994-0.31,2-0.751,3.018-1.326c5.525-3.051,8.289-8.312,8.289-15.784c0-7.383-2.697-12.6-8.092-15.65
		c-0.885-0.531-1.756-0.939-2.619-1.228c-0.861-0.286-1.656-0.508-2.387-0.663c-0.729-0.154-1.371-0.265-1.924-0.332
		c-0.553-0.066-0.939-0.1-1.16-0.1h-12.07V136.736L500.561,136.736z"/>
	<path fill="#FFFFFF" d="M558.19,142.506c-3.316,0-6.135-0.453-8.455-1.36c-2.322-0.905-4.234-1.912-5.736-3.017
		c-1.504-1.105-2.609-2.145-3.316-3.117s-1.084-1.502-1.127-1.592l4.842-2.32c0.221,0.311,0.617,0.796,1.193,1.459
		c0.574,0.663,1.236,1.238,1.988,1.725c1.371,0.885,2.951,1.559,4.742,2.022s3.746,0.696,5.869,0.696
		c1.326,0,2.596-0.199,3.812-0.598c1.215-0.398,2.332-0.972,3.35-1.724c0.885-0.663,1.592-1.415,2.121-2.255
		c0.531-0.84,0.84-1.658,0.93-2.454c0.266-1.99-0.631-3.824-2.688-5.505c-2.055-1.68-4.963-3.027-8.721-4.045
		c-2.52-0.618-4.752-1.393-6.697-2.32c-1.945-0.93-3.561-1.967-4.842-3.117c-1.547-1.502-2.51-3.006-2.885-4.509
		s-0.521-2.763-0.432-3.78c0.088-0.839,0.311-1.658,0.664-2.453c0.354-0.797,0.795-1.57,1.326-2.322l-0.066,0.066
		c0.885-1.415,2.121-2.63,3.715-3.646c1.547-1.018,3.205-1.812,4.973-2.389c1.768-0.574,3.582-0.861,5.439-0.861
		c2.52,0,4.74,0.343,6.664,1.027c1.924,0.686,3.549,1.459,4.875,2.321s2.344,1.658,3.051,2.388c0.707,0.729,1.104,1.116,1.193,1.16
		l-3.779,2.984c-0.178,0-0.355-0.021-0.531-0.066c-0.178-0.043-0.354-0.088-0.531-0.133c-0.176-0.043-0.309-0.132-0.396-0.266
		c-0.133-0.133-0.389-0.364-0.764-0.695c-0.375-0.332-0.938-0.74-1.689-1.227h0.064c-2.254-1.326-4.973-1.989-8.156-1.989
		c-1.238,0-2.453,0.188-3.646,0.563s-2.277,0.885-3.25,1.524c-0.973,0.642-1.791,1.358-2.453,2.155
		c-0.664,0.795-1.061,1.613-1.193,2.453c-0.133,1.371,0.42,2.586,1.658,3.647c1.812,1.769,4.818,3.185,9.02,4.245
		c2.652,0.663,5.027,1.525,7.129,2.586c2.1,1.061,3.791,2.254,5.074,3.581c2.693,2.83,3.822,5.925,3.381,9.284
		c-0.223,1.592-0.773,3.117-1.658,4.576s-2.078,2.742-3.58,3.846c-1.459,1.105-3.074,1.957-4.842,2.553
		C562.057,142.208,560.18,142.506,558.19,142.506z"/>
	<path fill="#FFFFFF" d="M585.315,142.706c-1.15,0-2.123-0.398-2.918-1.195c-0.797-0.795-1.195-1.768-1.195-2.918
		c0-1.148,0.398-2.121,1.195-2.918c0.795-0.795,1.768-1.192,2.918-1.192c1.148,0,2.109,0.397,2.885,1.192
		c0.771,0.797,1.16,1.77,1.16,2.918c0,1.15-0.389,2.123-1.16,2.918C587.424,142.307,586.463,142.706,585.315,142.706z"/>
</g>
<path fill="#FFFFFF" d="M616.129,70.654c-1.15,0-2.123-0.398-2.918-1.195c-0.797-0.795-1.195-1.768-1.195-2.918
	c0-1.148,0.398-2.121,1.195-2.918c0.795-0.795,1.768-1.192,2.918-1.192c1.148,0,2.109,0.397,2.885,1.192
	c0.771,0.797,1.16,1.77,1.16,2.918c0,1.15-0.389,2.123-1.16,2.918C618.239,70.255,617.278,70.654,616.129,70.654z"/>
</svg>
