<?xml version="1.0" encoding="utf-8"?>
<!-- Generator: Adobe Illustrator 16.0.0, SVG Export Plug-In . SVG Version: 6.00 Build 0)  -->
<!DOCTYPE svg PUBLIC "-//W3C//DTD SVG 1.1//EN" "http://www.w3.org/Graphics/SVG/1.1/DTD/svg11.dtd">
<svg version="1.1" id="Layer_1" xmlns="http://www.w3.org/2000/svg" xmlns:xlink="http://www.w3.org/1999/xlink" x="0px" y="0px"
	 width="640.333px" height="176.333px" viewBox="0 0 640.333 176.333" enable-background="new 0 0 640.333 176.333"
	 xml:space="preserve">
<g>
	<path fill="#ED4A4A" d="M48.341,74.921c-3.317,0-6.567-0.658-9.747-1.977c-3-1.271-5.657-3.043-7.975-5.316
		c-2.227-2.226-3.999-4.862-5.316-7.907c-0.637-1.59-1.137-3.191-1.5-4.806c-0.364-1.612-0.545-3.237-0.545-4.873
		c0-1.681,0.181-3.317,0.545-4.908c0.363-1.589,0.862-3.18,1.5-4.771c0.682-1.545,1.442-2.988,2.284-4.329
		c0.84-1.34,1.851-2.556,3.033-3.646v0.068c1.181-1.181,2.442-2.204,3.783-3.068c1.34-0.862,2.737-1.612,4.192-2.249v0.068
		c1.59-0.635,3.192-1.135,4.806-1.5c1.612-0.363,3.26-0.545,4.941-0.545c3.317,0,6.588,0.705,9.815,2.113l-0.068-0.068
		c1.5,0.591,2.931,1.353,4.294,2.284c1.364,0.932,2.635,2.011,3.817,3.238l1.908,2.044l-4.021,4.022l-2.045-2.045
		c-1.863-1.863-3.964-3.294-6.305-4.294c-2.341-0.999-4.805-1.5-7.396-1.5c-2.682,0-5.18,0.501-7.498,1.5
		c-2.318,1-4.352,2.363-6.101,4.089c-1.75,1.728-3.125,3.749-4.124,6.066c-1,2.318-1.5,4.795-1.5,7.43c0,2.59,0.5,5.044,1.5,7.362
		c0.999,2.317,2.374,4.352,4.124,6.1c1.749,1.75,3.783,3.125,6.101,4.124c2.317,1,4.816,1.5,7.498,1.5
		c2.318,0,4.521-0.397,6.612-1.193c2.09-0.794,4.021-1.919,5.794-3.374v-9.134H42.957v-5.794h23.584v17.381L65.723,67.9
		c-2.363,2.318-5.033,4.068-8.009,5.249C54.737,74.331,51.613,74.921,48.341,74.921z"/>
	<path fill="#ED4A4A" d="M85.354,74.921H79.56V24.822h5.794V74.921z"/>
	<path fill="#ED4A4A" d="M127.409,30.957H95.373v-5.793h32.036V30.957z M101.167,74.921h-5.794V45.816h32.036v5.794h-26.242V74.921z
		"/>
	<path fill="#ED4A4A" d="M150.038,74.921V30.889h-16.836v-5.862h39.875v5.862h-17.245v44.032H150.038z"/>
	<path fill="#ED4A4A" d="M192.638,75.058c-3.5,0-6.476-0.478-8.929-1.432c-2.454-0.955-4.464-2.021-6.032-3.204
		c-1.568-1.181-2.738-2.271-3.51-3.271c-0.773-0.999-1.181-1.545-1.227-1.636l5.18-2.522c0.227,0.318,0.647,0.83,1.261,1.534
		c0.614,0.705,1.306,1.329,2.08,1.875c1.408,0.954,3.067,1.67,4.976,2.147c1.908,0.477,3.976,0.716,6.203,0.716
		c1.408,0,2.761-0.215,4.056-0.648c1.295-0.431,2.464-1.033,3.51-1.806c0.908-0.726,1.658-1.533,2.249-2.42
		c0.59-0.886,0.931-1.738,1.023-2.556c0.227-2.135-0.728-4.09-2.863-5.862c-2.136-1.772-5.203-3.18-9.202-4.226
		c-2.636-0.682-5-1.5-7.088-2.454c-2.091-0.954-3.795-2.044-5.112-3.271c-0.818-0.772-1.478-1.568-1.977-2.386
		c-0.5-0.818-0.863-1.613-1.09-2.386c-0.228-0.772-0.364-1.5-0.409-2.181c-0.045-0.682-0.045-1.295,0-1.84
		c0.09-0.863,0.317-1.727,0.682-2.59c0.363-0.863,0.818-1.681,1.364-2.454l-0.068,0.068c1.044-1.544,2.362-2.816,3.953-3.817
		c1.59-1.09,3.34-1.942,5.249-2.556c1.908-0.614,3.817-0.92,5.726-0.92c2.635,0,4.976,0.375,7.021,1.125
		c2.045,0.75,3.771,1.568,5.181,2.454c1.407,0.886,2.488,1.716,3.237,2.488c0.75,0.773,1.169,1.182,1.261,1.227l-4.021,3.204
		c-0.228,0-0.432-0.022-0.613-0.068c-0.409-0.09-0.728-0.249-0.954-0.477c-0.091-0.137-0.353-0.375-0.784-0.716
		c-0.433-0.341-1.034-0.761-1.807-1.261h0.068c-2.363-1.408-5.226-2.113-8.588-2.113c-1.318,0-2.614,0.205-3.885,0.613
		c-1.273,0.409-2.42,0.944-3.442,1.602c-1.022,0.659-1.875,1.409-2.556,2.25c-0.682,0.841-1.091,1.716-1.227,2.624
		c-0.136,1.409,0.431,2.682,1.704,3.817c1.999,1.909,5.18,3.408,9.542,4.499c2.863,0.728,5.385,1.636,7.566,2.727
		c2.181,1.091,3.953,2.341,5.317,3.749c2.817,2.999,4.021,6.271,3.613,9.815c-0.273,1.682-0.875,3.296-1.807,4.84
		c-0.932,1.545-2.193,2.909-3.783,4.09c-1.545,1.182-3.261,2.079-5.146,2.692C196.648,74.75,194.683,75.058,192.638,75.058z"/>
	<path fill="#ED4A4A" d="M262.026,74.989h-5.793V54.541c-2.955-4.316-5.987-8.77-9.099-13.36c-3.113-4.589-6.125-9.042-9.032-13.36
		l4.839-3.203l16.291,23.856l16.291-23.925l4.771,3.34l-18.268,26.719V74.989z"/>
	<path fill="#ED4A4A" d="M306.195,74.853c-3.272,0-6.499-0.658-9.679-1.977c-1.591-0.681-3.045-1.465-4.362-2.352
		c-1.319-0.886-2.545-1.851-3.681-2.897c-1.045-1.135-2.01-2.351-2.897-3.646c-0.886-1.295-1.647-2.737-2.283-4.329
		c-0.637-1.59-1.137-3.191-1.5-4.805c-0.364-1.613-0.545-3.238-0.545-4.874c0-1.681,0.181-3.328,0.545-4.941
		c0.363-1.612,0.863-3.214,1.5-4.806c1.227-2.999,2.976-5.634,5.248-7.907c2.226-2.226,4.884-3.998,7.975-5.316
		c1.59-0.636,3.18-1.136,4.771-1.5c1.59-0.363,3.226-0.545,4.907-0.545c1.636,0,3.272,0.182,4.907,0.545
		c1.636,0.364,3.249,0.863,4.84,1.5c1.454,0.637,2.873,1.409,4.26,2.317c1.386,0.91,2.602,1.886,3.646,2.931
		c1.045,1.091,2.034,2.329,2.966,3.715c0.931,1.386,1.715,2.806,2.352,4.26c0.637,1.591,1.124,3.193,1.466,4.806
		c0.34,1.613,0.511,3.261,0.511,4.941c0,1.636-0.171,3.261-0.511,4.874c-0.342,1.613-0.829,3.215-1.466,4.805
		c-1.273,2.955-3.067,5.59-5.386,7.907c-2.317,2.318-4.931,4.09-7.838,5.317C312.67,74.194,309.42,74.853,306.195,74.853z
		 M306.195,30.82c-2.636,0-5.112,0.5-7.429,1.5c-2.318,1-4.352,2.363-6.101,4.09c-1.75,1.727-3.125,3.761-4.124,6.101
		c-1,2.341-1.5,4.829-1.5,7.463c0,2.59,0.5,5.044,1.5,7.362c0.999,2.317,2.374,4.352,4.124,6.1c1.749,1.75,3.783,3.125,6.101,4.124
		c2.317,1,4.793,1.5,7.429,1.5c2.635,0,5.112-0.5,7.43-1.5c2.317-0.999,4.351-2.374,6.101-4.124c1.749-1.749,3.123-3.783,4.123-6.1
		c1-2.318,1.5-4.771,1.5-7.362c0-2.635-0.5-5.123-1.5-7.463c-1-2.34-2.374-4.374-4.123-6.101c-1.75-1.727-3.783-3.09-6.101-4.09
		C311.307,31.321,308.83,30.82,306.195,30.82z"/>
	<path fill="#ED4A4A" d="M357.65,74.989c-6.181,0-10.884-1.795-14.109-5.385c-1.228-1.318-2.159-2.727-2.794-4.227
		c-0.638-1.499-1.092-2.907-1.364-4.226c-0.272-1.318-0.42-2.442-0.443-3.375c-0.023-0.931-0.034-1.51-0.034-1.738V25.095h5.794
		v31.082c0,1.319,0.079,2.454,0.239,3.408c0.158,0.955,0.453,1.977,0.885,3.067c0.433,1.09,1.08,2.091,1.943,2.999
		c2.226,2.363,5.521,3.544,9.884,3.544c4.499,0,7.747-1.135,9.747-3.408c0.682-0.772,1.192-1.59,1.533-2.454
		c0.341-0.863,0.58-1.692,0.717-2.488c0.135-0.794,0.203-1.5,0.203-2.113s0-1.056,0-1.329V24.891h5.794v32.24
		c0,0.409-0.011,1.068-0.034,1.977c-0.022,0.91-0.147,1.932-0.374,3.067c-0.229,1.137-0.613,2.352-1.159,3.647
		c-0.545,1.295-1.319,2.512-2.317,3.646c-1.592,1.728-3.591,3.079-5.998,4.056C363.352,74.501,360.649,74.989,357.65,74.989z"/>
	<path fill="#ED4A4A" d="M415.314,75.398l-12.678-20.584h-11.382v20.107h-5.794v-25.97h13.563l-14.723-23.856h21.743
		c0.137,0,0.522,0.023,1.159,0.068c0.636,0.045,1.397,0.182,2.283,0.409c0.886,0.228,1.841,0.591,2.862,1.09
		c1.022,0.5,2.012,1.205,2.965,2.113c2.817,2.727,4.227,6.567,4.227,11.52c0,1.818-0.217,3.408-0.647,4.771
		c-0.433,1.363-0.978,2.533-1.636,3.51c-0.659,0.978-1.396,1.806-2.215,2.488s-1.613,1.25-2.386,1.704
		c-0.638,0.365-1.239,0.648-1.808,0.853c-0.567,0.204-1.124,0.398-1.669,0.579l11.109,18.199L415.314,75.398z M405.839,48.951
		c0.364-0.09,0.943-0.215,1.739-0.375c0.794-0.159,1.578-0.466,2.352-0.921l-0.068,0.068c2.59-1.5,3.885-3.976,3.885-7.429
		c0-3.317-0.817-5.771-2.453-7.362v0.068c-0.545-0.545-1.125-0.954-1.738-1.227c-0.614-0.272-1.17-0.477-1.67-0.613
		s-0.92-0.215-1.262-0.238c-0.34-0.022-0.534-0.034-0.579-0.034h-11.246L405.839,48.951z M405.839,48.951h0.068h-0.136H405.839z"/>
	<path fill="#ED4A4A" d="M502.838,74.921h-5.861V43.635l-15.2,27.469l-15.063-27.265v31.082h-5.794V25.64l2.181-0.545l18.745,33.808
		c3.136-5.634,6.281-11.269,9.44-16.904c3.158-5.634,6.281-11.269,9.372-16.904l2.181,0.545V74.921z"/>
	<path fill="#ED4A4A" d="M549.183,75.398l-15.95-37.489l-16.019,37.489l-5.315-2.317l21.334-49.895L554.5,73.081L549.183,75.398z"/>
	<path fill="#ED4A4A" d="M600.297,77.443L568.057,39v35.921h-5.794V22.982l32.24,38.375V25.095h5.794V77.443z"/>
	<path fill="#ED4A4A" d="M35.3,148.49h-5.794V98.391H35.3V148.49z"/>
	<path fill="#ED4A4A" d="M61.61,148.626c-3.5,0-6.475-0.477-8.929-1.432c-2.454-0.954-4.465-2.021-6.032-3.203
		c-1.568-1.181-2.739-2.272-3.511-3.272c-0.773-0.998-1.181-1.545-1.227-1.635l5.18-2.522c0.227,0.317,0.648,0.83,1.261,1.532
		c0.613,0.707,1.306,1.329,2.079,1.876c1.408,0.953,3.067,1.67,4.976,2.146c1.909,0.478,3.976,0.717,6.203,0.717
		c1.408,0,2.761-0.215,4.056-0.648c1.294-0.433,2.464-1.032,3.51-1.806c0.909-0.727,1.659-1.534,2.25-2.42
		c0.59-0.887,0.931-1.738,1.022-2.556c0.227-2.137-0.728-4.09-2.863-5.863c-2.136-1.771-5.204-3.181-9.202-4.225
		c-2.636-0.683-5-1.5-7.089-2.454c-2.091-0.955-3.795-2.046-5.112-3.272c-0.817-0.771-1.477-1.568-1.977-2.386
		c-0.5-0.817-0.864-1.612-1.09-2.386c-0.228-0.772-0.365-1.499-0.409-2.181c-0.046-0.683-0.046-1.295,0-1.841
		c0.09-0.861,0.317-1.727,0.682-2.59c0.363-0.862,0.818-1.681,1.363-2.454l-0.068,0.068c1.045-1.544,2.362-2.817,3.953-3.817
		c1.59-1.09,3.34-1.941,5.249-2.556c1.908-0.612,3.816-0.92,5.725-0.92c2.635,0,4.976,0.375,7.021,1.124s3.771,1.568,5.18,2.454
		c1.408,0.886,2.488,1.717,3.237,2.488c0.75,0.772,1.17,1.183,1.261,1.227l-4.021,3.204c-0.228,0-0.432-0.023-0.613-0.067
		c-0.409-0.091-0.728-0.251-0.955-0.479c-0.091-0.137-0.352-0.375-0.783-0.715c-0.433-0.341-1.034-0.761-1.807-1.261h0.068
		c-2.363-1.409-5.226-2.114-8.588-2.114c-1.318,0-2.613,0.205-3.885,0.614c-1.273,0.407-2.42,0.943-3.442,1.601
		c-1.022,0.66-1.874,1.409-2.556,2.251c-0.682,0.841-1.091,1.715-1.227,2.624c-0.137,1.407,0.431,2.681,1.704,3.817
		c1.999,1.907,5.181,3.407,9.543,4.498c2.863,0.727,5.385,1.636,7.566,2.727c2.181,1.09,3.953,2.341,5.316,3.749
		c2.817,2.997,4.021,6.271,3.613,9.814c-0.273,1.683-0.875,3.295-1.807,4.839c-0.932,1.547-2.193,2.91-3.783,4.091
		c-1.545,1.183-3.261,2.078-5.146,2.692C65.62,148.319,63.655,148.626,61.61,148.626z"/>
	<path fill="#ED4A4A" d="M127.25,148.626c-3.499,0-6.475-0.477-8.929-1.432c-2.454-0.954-4.465-2.021-6.032-3.203
		c-1.568-1.181-2.738-2.272-3.51-3.272c-0.773-0.998-1.182-1.545-1.227-1.635l5.18-2.522c0.227,0.317,0.647,0.83,1.261,1.532
		c0.613,0.707,1.306,1.329,2.079,1.876c1.408,0.953,3.067,1.67,4.976,2.146c1.908,0.478,3.976,0.717,6.202,0.717
		c1.408,0,2.761-0.215,4.056-0.648c1.295-0.433,2.464-1.032,3.51-1.806c0.909-0.727,1.659-1.534,2.25-2.42
		c0.59-0.887,0.931-1.738,1.022-2.556c0.227-2.137-0.727-4.09-2.863-5.863c-2.136-1.771-5.204-3.181-9.202-4.225
		c-2.636-0.683-5-1.5-7.089-2.454c-2.091-0.955-3.795-2.046-5.112-3.272c-0.818-0.771-1.478-1.568-1.977-2.386
		c-0.5-0.817-0.863-1.612-1.09-2.386c-0.228-0.772-0.364-1.499-0.409-2.181c-0.045-0.683-0.045-1.295,0-1.841
		c0.09-0.861,0.317-1.727,0.682-2.59c0.363-0.862,0.818-1.681,1.364-2.454l-0.068,0.068c1.044-1.544,2.362-2.817,3.953-3.817
		c1.59-1.09,3.34-1.941,5.249-2.556c1.908-0.612,3.817-0.92,5.725-0.92c2.635,0,4.977,0.375,7.021,1.124
		c2.045,0.749,3.771,1.568,5.181,2.454c1.407,0.886,2.488,1.717,3.237,2.488c0.75,0.772,1.169,1.183,1.261,1.227l-4.021,3.204
		c-0.228,0-0.432-0.023-0.613-0.067c-0.409-0.091-0.728-0.251-0.954-0.479c-0.092-0.137-0.353-0.375-0.784-0.715
		c-0.433-0.341-1.034-0.761-1.807-1.261h0.068c-2.364-1.409-5.227-2.114-8.589-2.114c-1.318,0-2.613,0.205-3.885,0.614
		c-1.273,0.407-2.42,0.943-3.442,1.601c-1.023,0.66-1.875,1.409-2.556,2.251c-0.682,0.841-1.091,1.715-1.227,2.624
		c-0.136,1.407,0.431,2.681,1.704,3.817c1.999,1.907,5.181,3.407,9.543,4.498c2.863,0.727,5.385,1.636,7.566,2.727
		c2.181,1.09,3.953,2.341,5.316,3.749c2.817,2.997,4.021,6.271,3.613,9.814c-0.273,1.683-0.875,3.295-1.807,4.839
		c-0.932,1.547-2.192,2.91-3.783,4.091c-1.545,1.183-3.261,2.078-5.146,2.692C131.26,148.319,129.295,148.626,127.25,148.626z"/>
	<path fill="#ED4A4A" d="M169.85,148.558c-6.18,0-10.883-1.795-14.109-5.386c-1.227-1.317-2.158-2.725-2.794-4.225
		c-0.637-1.5-1.09-2.907-1.363-4.227c-0.272-1.317-0.421-2.441-0.443-3.373c-0.023-0.932-0.034-1.511-0.034-1.739V98.665h5.794
		v31.081c0,1.319,0.079,2.453,0.239,3.407c0.158,0.956,0.454,1.978,0.886,3.068c0.431,1.09,1.079,2.09,1.943,3
		c2.226,2.363,5.521,3.544,9.883,3.544c4.499,0,7.748-1.137,9.748-3.41c0.681-0.771,1.193-1.588,1.534-2.453
		c0.341-0.861,0.58-1.69,0.715-2.488c0.137-0.793,0.205-1.498,0.205-2.112c0-0.612,0-1.056,0-1.329V98.459h5.793v32.239
		c0,0.41-0.012,1.068-0.034,1.979c-0.023,0.909-0.148,1.932-0.375,3.065c-0.228,1.137-0.614,2.352-1.159,3.646
		c-0.545,1.296-1.318,2.513-2.317,3.648c-1.591,1.728-3.59,3.078-5.998,4.055C175.553,148.07,172.85,148.558,169.85,148.558z"/>
	<path fill="#ED4A4A" d="M227.515,148.967l-12.678-20.585h-11.383v20.107h-5.794v-25.969h13.564l-14.723-23.856h21.743
		c0.137,0,0.522,0.021,1.159,0.068c0.636,0.046,1.397,0.181,2.284,0.407c0.886,0.229,1.84,0.593,2.863,1.093
		s2.011,1.202,2.965,2.112c2.816,2.727,4.226,6.565,4.226,11.52c0,1.817-0.216,3.407-0.647,4.771
		c-0.432,1.363-0.978,2.534-1.636,3.51c-0.66,0.979-1.397,1.808-2.215,2.488c-0.818,0.683-1.614,1.251-2.386,1.704
		c-0.637,0.364-1.238,0.647-1.806,0.852c-0.569,0.205-1.125,0.399-1.67,0.581l11.11,18.197L227.515,148.967z M218.041,122.521
		c0.363-0.091,0.942-0.215,1.738-0.376c0.795-0.158,1.579-0.466,2.352-0.919l-0.068,0.067c2.59-1.499,3.885-3.976,3.885-7.429
		c0-3.317-0.818-5.771-2.454-7.361v0.066c-0.546-0.544-1.125-0.954-1.738-1.227c-0.614-0.271-1.171-0.477-1.67-0.613
		c-0.5-0.136-0.92-0.215-1.261-0.238c-0.341-0.022-0.535-0.034-0.58-0.034h-11.246L218.041,122.521z M218.041,122.521h0.068h-0.137
		H218.041z"/>
	<path fill="#ED4A4A" d="M270.661,127.223h-25.288v15.474h26.924v5.793h-32.718V98.665h32.718v5.793h-26.924v16.904h25.288V127.223z
		"/>
	<path fill="#ED4A4A" d="M320.69,148.49v-44.032h-16.835v-5.861h39.875v5.861h-17.244v44.032H320.69z"/>
	<path fill="#ED4A4A" d="M372.219,148.421c-3.271,0-6.498-0.656-9.679-1.976c-1.591-0.683-3.044-1.466-4.362-2.352
		c-1.318-0.888-2.545-1.852-3.681-2.897c-1.046-1.135-2.011-2.352-2.896-3.646c-0.887-1.295-1.647-2.737-2.284-4.329
		c-0.637-1.591-1.137-3.19-1.499-4.805c-0.364-1.612-0.545-3.237-0.545-4.874c0-1.681,0.181-3.327,0.545-4.941
		c0.362-1.612,0.862-3.215,1.499-4.805c1.227-3,2.976-5.635,5.249-7.907c2.226-2.227,4.884-3.998,7.975-5.317
		c1.59-0.635,3.181-1.135,4.771-1.5c1.591-0.361,3.226-0.544,4.907-0.544c1.636,0,3.272,0.183,4.908,0.544
		c1.636,0.365,3.248,0.865,4.84,1.5c1.454,0.637,2.873,1.41,4.26,2.317c1.386,0.909,2.601,1.888,3.646,2.932
		c1.045,1.09,2.033,2.329,2.965,3.715c0.931,1.388,1.715,2.807,2.353,4.261c0.635,1.59,1.124,3.192,1.465,4.805
		c0.341,1.614,0.511,3.261,0.511,4.941c0,1.637-0.17,3.262-0.511,4.874c-0.341,1.614-0.83,3.214-1.465,4.805
		c-1.273,2.956-3.068,5.59-5.386,7.907s-4.931,4.09-7.838,5.317C378.695,147.765,375.446,148.421,372.219,148.421z M372.219,104.389
		c-2.635,0-5.111,0.502-7.429,1.5c-2.318,1-4.353,2.363-6.102,4.09s-3.124,3.761-4.123,6.101c-1,2.341-1.5,4.829-1.5,7.463
		c0,2.591,0.5,5.044,1.5,7.361c0.999,2.317,2.374,4.352,4.123,6.101c1.749,1.751,3.783,3.126,6.102,4.124
		c2.317,1,4.794,1.5,7.429,1.5s5.112-0.5,7.43-1.5c2.318-0.998,4.352-2.373,6.102-4.124c1.748-1.749,3.123-3.783,4.123-6.101
		c0.999-2.317,1.5-4.771,1.5-7.361c0-2.634-0.501-5.122-1.5-7.463c-1-2.34-2.375-4.374-4.123-6.101
		c-1.75-1.727-3.783-3.09-6.102-4.09C377.332,104.891,374.854,104.389,372.219,104.389z"/>
	<path fill="#ED4A4A" d="M463.079,148.49h-29.924V98.596h5.862v44.101h24.062V148.49z"/>
	<path fill="#ED4A4A" d="M469.144,103.503l4.226-3.817l3.409,3.954c1.363-0.863,2.749-1.612,4.157-2.249
		c3.09-1.273,6.248-1.909,9.475-1.909c3.271,0,6.452,0.636,9.543,1.909c1.408,0.637,2.795,1.42,4.158,2.352s2.566,1.919,3.612,2.964
		c1.045,1.046,2.021,2.238,2.931,3.58c0.908,1.339,1.681,2.715,2.318,4.122c0.635,1.546,1.124,3.103,1.465,4.671
		c0.341,1.565,0.512,3.192,0.512,4.873s-0.171,3.305-0.512,4.873s-0.83,3.124-1.465,4.669c-0.592,1.272-1.251,2.478-1.978,3.612
		c-0.728,1.136-1.545,2.227-2.453,3.272l3.407,3.886l-4.226,3.748l-3.408-3.885c-1.455,0.954-2.909,1.727-4.362,2.317
		c-1.455,0.636-2.999,1.124-4.635,1.466c-1.637,0.339-3.271,0.51-4.908,0.51c-3.271,0-6.431-0.656-9.475-1.976v0.068
		c-1.455-0.591-2.828-1.33-4.123-2.215c-1.296-0.888-2.534-1.897-3.715-3.034c-1.091-1.181-2.079-2.407-2.965-3.681
		c-0.887-1.271-1.647-2.635-2.284-4.09h0.068c-1.318-3.135-1.977-6.315-1.977-9.542c0-1.591,0.182-3.215,0.545-4.873
		c0.363-1.659,0.84-3.215,1.432-4.671c0.545-1.317,1.216-2.566,2.011-3.749c0.794-1.181,1.646-2.271,2.557-3.271L469.144,103.503z
		 M471.667,123.953c0,2.59,0.487,5.021,1.466,7.293c0.977,2.272,2.317,4.261,4.021,5.963c1.705,1.705,3.691,3.047,5.965,4.022
		c2.271,0.978,4.703,1.466,7.293,1.466c1.863,0,3.647-0.261,5.351-0.785c1.704-0.521,3.282-1.237,4.737-2.146l-24.334-28.083
		c-1.408,1.637-2.511,3.5-3.306,5.59S471.667,121.589,471.667,123.953z M490.411,105.14c-1.817,0-3.557,0.249-5.214,0.749
		c-1.659,0.5-3.216,1.204-4.67,2.112l24.267,28.015c1.362-1.637,2.441-3.476,3.237-5.52c0.795-2.046,1.193-4.227,1.193-6.544
		c0-2.591-0.501-5.022-1.5-7.295c-1-2.271-2.352-4.259-4.057-5.964c-1.703-1.702-3.691-3.056-5.963-4.056
		C495.431,105.64,493,105.14,490.411,105.14z"/>
	<path fill="#ED4A4A" d="M538.827,150.467l-21.811-49.896l5.247-2.249l16.632,37.898l16.768-37.898l5.181,2.249L538.827,150.467z"/>
	<path fill="#ED4A4A" d="M598.65,127.223h-25.288v15.474h26.924v5.793h-32.718V98.665h32.718v5.793h-26.924v16.904h25.288V127.223z"
		/>
	<path fill="#ED4A4A" d="M614.122,148.831c-1.183,0-2.182-0.409-2.999-1.227s-1.228-1.817-1.228-3c0-1.181,0.41-2.181,1.228-2.998
		c0.817-0.819,1.816-1.227,2.999-1.227c1.181,0,2.169,0.407,2.965,1.227c0.795,0.817,1.193,1.817,1.193,2.998
		c0,1.183-0.398,2.183-1.193,3C616.291,148.421,615.302,148.831,614.122,148.831z"/>
</g>
</svg>
